<?xml version="1.0" encoding="UTF-8" standalone="no"?>
<!-- Created with Inkscape (http://www.inkscape.org/) -->

<svg
   width="551.71936"
   height="880.1748"
   viewBox="0 0 145.97575 232.87959"
   version="1.1"
   id="svg1"
   xmlns="http://www.w3.org/2000/svg"
   xmlns:svg="http://www.w3.org/2000/svg">
  <defs
     id="defs1" />
  <g
     id="layer1"
     transform="translate(-36.334422,-36.97835)">
    <path
       style="fill:#000000;stroke-width:0.264583"
       d="m 55.045592,269.42118 c -3.129063,-0.6924 -5.559108,-1.7305 -8.224828,-3.51355 -9.630241,-6.44157 -12.955302,-19.30196 -7.67302,-29.67706 l 1.255218,-2.46541 -0.483894,-0.90227 c -0.692661,-1.29154 -0.63369,-3.48857 0.138067,-5.14386 1.160066,-2.48814 5.086186,-6.14071 8.28046,-7.70352 0.778981,-0.38113 1.41633,-0.83972 1.41633,-1.01912 0,-0.17939 -1.010912,-3.62201 -2.246475,-7.65026 -2.116029,-6.89881 -3.310152,-11.2477 -3.682537,-13.41146 -0.146762,-0.85276 -0.310478,-1.00594 -1.680855,-1.57266 -1.805144,-0.74651 -3.934585,-2.76613 -4.738397,-4.49402 -1.354069,-2.91073 -1.418442,-6.24517 -0.227306,-11.77396 0.344866,-1.60073 0.702892,-3.92244 0.795615,-5.15937 0.604097,-8.05866 4.265666,-23.72569 6.944212,-29.71273 l 0.68657,-1.53461 -1.100415,-1.12124 c -0.605227,-0.61668 -1.100413,-1.2769 -1.100413,-1.46715 0,-0.45602 5.46094,-8.50133 8.762649,-12.90953 5.826334,-7.7789 10.492309,-11.28062 19.005145,-14.26299 0.214781,-0.0752 -0.937048,-0.77116 -2.618838,-1.58225 -3.712636,-1.79053 -5.525378,-2.87277 -8.744788,-5.22082 -2.305421,-1.68145 -7.14375,-6.13849 -7.14375,-6.5808 0,-0.10313 0.535781,-0.572277 1.190625,-1.042547 0.654844,-0.47028 1.190625,-0.99228 1.190625,-1.16002 0,-0.16774 -1.425221,-1.96325 -3.167158,-3.99004 -1.741937,-2.02679 -3.170687,-3.88729 -3.175,-4.13444 -0.01273,-0.728823 1.255527,-4.518616 2.530671,-7.562187 1.377355,-3.287538 3.206959,-6.782837 5.00262,-9.557068 1.14219,-1.764643 1.232416,-2.013098 0.912794,-2.513541 -2.974922,-4.657921 -4.85838,-10.164773 -5.5337,-16.179422 -0.359571,-3.202474 -0.375975,-9.307557 -0.02984,-11.10579 0.865264,-4.495228 2.151957,-5.809236 6.063054,-6.191763 6.181608,-0.604597 16.231724,2.267104 23.625119,6.7506 l 1.49003,0.903576 3.27247,-1.575927 c 3.94395,-1.899282 6.97743,-2.930022 11.209983,-3.809018 11.753135,-2.440837 23.365005,-1.115507 33.785905,3.856172 l 3.35881,1.602452 1.27139,-0.797671 c 7.54732,-4.735203 17.92197,-7.714658 24.14297,-6.93352 2.07215,0.260188 2.70607,0.514911 3.78443,1.520658 1.77262,1.653262 2.57264,6.532443 2.06706,12.606742 -0.65258,7.840589 -2.6106,14.607299 -5.48254,18.947101 l -0.64802,0.979209 1.17435,1.816881 c 1.7124,2.649331 3.69491,6.451301 5.04776,9.680329 1.26015,3.007788 2.53851,6.816656 2.53851,7.563487 0,0.24785 -1.42875,2.10648 -3.175,4.13026 -1.74625,2.02379 -3.175,3.82272 -3.175,3.99762 0,0.17491 0.46736,0.64189 1.03858,1.03775 0.57122,0.39585 1.10329,0.888377 1.18239,1.094487 0.18613,0.48505 -1.01991,1.84709 -3.75384,4.23944 -3.01722,2.64024 -7.21605,5.45147 -11.25012,7.53225 l -3.39027,1.74871 1.67048,0.60013 c 4.05395,1.45641 8.4485,4.00007 11.8312,6.84813 5.06578,4.26516 14.57783,13.22039 14.57783,13.72449 0,0.19817 -0.19034,0.6508 -0.42298,1.00585 l -0.42297,0.64554 1.18218,1.39567 c 2.69468,3.1813 6.39741,8.34786 7.23448,10.09453 0.76853,1.60365 0.89595,2.1474 0.89595,3.82319 0,3.42935 -1.29226,7.00186 -4.22757,11.68732 -3.08771,4.92871 -8.96563,11.99863 -13.41843,16.13958 l -2.13382,1.98438 -0.69431,2.12023 c -0.80904,2.47059 -2.37952,5.00426 -3.95012,6.37277 -2.38083,2.07448 -6.09336,3.19008 -8.45022,2.53926 -0.54571,-0.15069 -0.99221,-0.19428 -0.99224,-0.0969 -2e-5,0.0974 0.42307,4.33042 0.94021,9.40669 0.51714,5.07627 0.90411,9.54045 0.85994,9.92041 -0.0698,0.60028 -0.39242,0.81836 -2.46156,1.66382 l -2.38125,0.973 -0.17818,6.56909 c -0.098,3.613 -0.49178,10.30282 -0.87507,14.86626 -0.38328,4.56344 -0.66028,8.33313 -0.61556,8.37709 0.0447,0.044 1.21173,0.82175 2.59335,1.72843 4.39687,2.88541 7.65119,6.52133 8.63754,9.65037 0.38523,1.22211 0.40306,1.63091 0.12529,2.87212 -0.55154,2.46457 -2.36697,4.3967 -4.13112,4.3967 -1.09585,0 -2.32713,-0.74609 -2.10357,-1.27465 0.44801,-1.05924 0.43986,-3.14118 -0.0158,-4.03988 -0.83397,-1.64473 -1.98076,-2.55724 -1.44593,-1.15054 0.70528,1.85503 0.009,5.21794 -1.42417,6.87553 l -0.89712,1.0378 -2.13105,0.0968 -2.13106,0.0968 -1.08036,-1.01935 -1.08036,-1.01934 0.29372,-1.04122 c 0.37201,-1.31879 0.11848,-2.94666 -0.63081,-4.05021 -0.32045,-0.47194 -0.64217,-0.85842 -0.71493,-0.85883 -0.0728,-5.2e-4 -0.13637,1.04058 -0.14136,2.3133 -0.007,1.85691 -0.12343,2.53123 -0.58793,3.41351 -0.92558,1.75802 -1.69319,2.20943 -3.73816,2.19827 l -1.75025,-0.01 -1.43192,-1.31336 c -1.02644,-0.94146 -1.66328,-1.32225 -2.24896,-1.34472 -1.27257,-0.0488 -1.53775,0.0342 -2.38378,0.74605 -0.66546,0.55995 -0.98874,0.64609 -2.04422,0.54467 -1.61392,-0.15508 -2.5607,-0.78997 -3.10067,-2.07925 -0.23766,-0.56747 -0.64365,-1.10043 -0.90219,-1.18435 -0.25854,-0.0839 -0.66237,-0.44606 -0.89739,-0.80476 -1.07634,-1.64268 -0.92862,-4.21336 0.60364,-10.5051 l 0.955,-3.92137 -0.44354,-3.75154 c -0.63508,-5.37171 -3.32103,-24.8389 -3.45757,-25.05983 -0.0631,-0.10216 -0.62346,-0.26311 -1.24514,-0.35766 -2.57315,-0.39136 -3.90269,-0.78587 -4.02862,-1.19539 -0.0714,-0.2321 -0.54886,-2.64425 -1.06109,-5.36033 -0.51222,-2.71608 -1.05627,-5.52094 -1.20898,-6.23301 l -0.27766,-1.29468 -2.57974,-0.32195 -2.57973,-0.32196 -3.957685,1.82295 c -5.590173,2.57488 -19.220053,7.97969 -20.123253,7.97969 -0.14568,0 -0.88792,-0.94442 -1.649425,-2.09871 l -1.384557,-2.09872 -2.530975,-0.0841 c -1.392036,-0.0462 -2.563212,-0.0246 -2.602616,0.0482 -0.0749,0.13831 0.319455,2.15562 1.887879,9.65729 0.682913,3.26633 1.19952,5.03213 1.88672,6.44892 0.77163,1.59088 0.945914,2.25021 0.944168,3.57188 -0.0011,0.89148 -0.135956,1.86858 -0.299508,2.17135 -0.265309,0.49113 -0.06153,0.79061 1.890376,2.77812 4.247798,4.32528 6.253558,9.31038 6.270628,15.58489 0.0282,10.3673 -6.6899,19.03502 -17.142704,22.11763 -3.20549,0.94532 -7.971125,1.11843 -11.188784,0.40644 z m 7.756646,-6.11756 c 1.67784,-1.86616 2.64618,-3.59587 2.450206,-4.37669 -0.08731,-0.34788 -0.557578,-1.50768 -1.045033,-2.57733 l -0.886282,-1.94482 -3.498033,-0.58197 -3.498029,-0.58197 -0.838174,0.69912 c -0.460997,0.38452 -1.416013,1.23658 -2.12226,1.89348 l -1.284081,1.19435 0.316873,1.6175 c 0.174281,0.88962 0.559033,2.35714 0.855006,3.26115 l 0.538136,1.64366 1.222825,0.3924 c 1.646756,0.52843 2.20499,0.60778 4.571743,0.64988 l 2.026002,0.036 z M 73.9633,258.06358 c 0.9398,-0.16369 1.193308,-0.38587 2.26346,-1.98377 0.662818,-0.98969 1.405572,-2.34025 1.650552,-3.00125 l 0.44542,-1.20181 -0.79327,-1.90554 c -0.436305,-1.04804 -1.119523,-2.27152 -1.518263,-2.71884 l -0.724982,-0.8133 -2.907321,0.22184 c -1.599026,0.12201 -2.941006,0.31531 -2.982177,0.42956 -0.04117,0.11425 -0.831557,1.62376 -1.75641,3.35447 l -1.681554,3.14674 1.067395,2.34336 1.067395,2.34337 2.405711,-0.0152 c 1.323141,-0.008 2.881961,-0.0982 3.464044,-0.19959 z m -21.711975,-4.99042 c 2.256141,-1.99127 2.131668,-1.52788 1.652368,-6.15145 l -0.313309,-3.02233 -2.548819,-1.34239 -2.548816,-1.34239 -1.539527,1.05742 c -0.846738,0.58159 -2.233491,1.69871 -3.081676,2.48249 -0.848185,0.78378 -1.586497,1.37909 -1.640697,1.32292 -0.0542,-0.0562 -0.269772,-0.51887 -0.479049,-1.02819 l -0.380506,-0.92604 -0.185523,1.71979 c -0.102036,0.94589 -0.06499,2.55323 0.08234,3.57188 0.256569,1.77404 0.993026,4.6302 1.19389,4.6302 0.05275,0 0.343805,-0.42015 0.64679,-0.93367 l 0.550881,-0.93367 1.128897,0.57788 c 1.06348,0.54439 4.883776,2.04239 5.279947,2.07035 0.100264,0.007 1.08253,-0.78168 2.182813,-1.7528 z m 21.482071,-9.23755 1.357595,-0.1395 0.427945,-1.37396 c 0.235371,-0.75567 0.536117,-1.96252 0.668327,-2.68189 l 0.240379,-1.30794 -0.867637,-1.35633 c -1.540338,-2.40794 -2.447147,-3.25296 -4.024302,-3.75012 l -1.45859,-0.45978 -1.667317,0.86447 c -2.518314,1.30568 -3.595385,2.20785 -3.983418,3.33656 l -0.344477,1.00202 1.374248,1.62182 c 0.755838,0.892 1.848059,2.30973 2.427158,3.15051 l 1.05291,1.52868 1.719791,-0.14752 c 0.945886,-0.0811 2.33071,-0.2103 3.077388,-0.28702 z m -15.792654,-4.21156 c 1.665092,-0.94521 3.109727,-1.71856 3.210301,-1.71856 0.100573,0 0.238143,-0.2892 0.305712,-0.64266 l 0.122852,-0.64266 -2.010236,-0.18836 c -2.343271,-0.21956 -3.022621,-0.59012 -3.799461,-2.07246 -0.441889,-0.84321 -0.57077,-1.56405 -0.58007,-3.24438 -0.01333,-2.41143 -0.302122,-2.53376 -1.092959,-0.46298 -0.323035,0.84585 -0.406967,1.61732 -0.301953,2.77543 l 0.145441,1.60395 -0.836451,0.51003 c -0.478428,0.29172 -1.317757,0.51045 -1.96093,0.51102 l -1.124479,10e-4 v 1.39106 1.39106 l 2.315104,1.24896 c 1.273307,0.68693 2.374635,1.25102 2.447395,1.25354 0.07276,0.003 1.49464,-0.76877 3.159734,-1.71398 z m -9.311161,-4.11413 c -1.141366,-0.94081 -1.786074,-2.71981 -1.786074,-4.92849 0,-0.77396 -0.09701,-1.40719 -0.21558,-1.40719 -0.118567,0 -0.416224,0.42076 -0.661458,0.93502 -0.960482,2.01415 -0.184676,5.09443 1.463458,5.81053 0.477835,0.20762 1.163808,0.38215 1.524385,0.38785 l 0.655598,0.0103 z M 137.9109,217.56817 c 2.02347,-0.53217 3.81122,-1.28892 3.58333,-1.51682 -0.0656,-0.0656 -1.29707,0.0845 -2.73657,0.33364 -1.97777,0.34227 -4.24959,0.45699 -9.2978,0.46953 -3.67429,0.009 -6.68062,0.0932 -6.68073,0.18673 -2.7e-4,0.28652 0.83192,0.53547 3.0425,0.91009 3.05072,0.51699 9.4361,0.31461 12.08927,-0.38317 z M 76.476842,203.02281 c 0,-1.76821 -0.889194,-5.09151 -1.976192,-7.38588 -2.063213,-4.3549 -5.751732,-8.27559 -9.561613,-10.16347 -1.221912,-0.60548 -2.264037,-1.05151 -2.315834,-0.99119 -0.0518,0.0603 -0.04052,0.5264 0.02506,1.03572 0.102465,0.79574 0.366636,1.09357 1.877459,2.11667 3.747606,2.5378 7.859768,7.13743 9.517222,10.64544 0.441385,0.9342 1.069194,2.67161 1.395129,3.86092 0.325951,1.18931 0.693007,2.16239 0.8157,2.16239 0.12269,0 0.223073,-0.57627 0.223073,-1.2806 z M 52.85294,195.13972 c 1.69401,-1.36175 2.324943,-2.78813 2.324943,-5.2561 0,-1.74591 -0.122631,-2.37157 -0.7001,-3.57188 l -0.700101,-1.45521 0.138777,1.8659 c 0.350546,4.71327 -2.355879,8.05226 -5.666642,6.99111 -2.148051,-0.68849 -3.80766,-2.47825 -4.423909,-4.77085 l -0.38716,-1.44032 -0.01482,1.71979 c -0.03475,4.03012 2.936219,7.01274 6.783185,6.80977 1.362543,-0.0719 1.815256,-0.22454 2.645833,-0.89221 z m 64.50203,-12.00282 c 5.88682,-0.53397 11.64318,-1.69087 16.61927,-3.34013 1.57351,-0.52152 2.81809,-0.99107 2.76572,-1.04344 -0.0524,-0.0524 -1.1888,0.12882 -2.5254,0.40267 -6.02866,1.23514 -9.01223,1.46726 -18.84397,1.46602 -10.22981,-0.001 -13.67053,-0.26592 -22.376498,-1.72097 -5.95467,-0.99522 -10.05459,-1.92913 -13.96079,-3.18009 -1.759959,-0.56363 -3.23237,-0.99234 -3.272029,-0.95268 -0.141711,0.14171 6.184509,3.08192 8.555009,3.97608 5.98061,2.25588 13.712283,3.9232 20.735558,4.47156 2.70813,0.21144 9.58798,0.16725 12.30313,-0.079 z m -53.923777,-6.09531 c 1.572556,-1.02401 3.840916,-2.36346 5.040807,-2.97657 1.199888,-0.6131 2.182154,-1.18597 2.182812,-1.27304 5.3e-4,-0.0871 -0.447407,-0.33452 -0.995701,-0.54989 l -0.996894,-0.39159 0.186415,-3.02199 c 0.102528,-1.66208 0.312719,-4.62932 0.467087,-6.59385 0.403601,-5.13631 0.344019,-14.47414 -0.126468,-19.82003 -0.355164,-4.03554 -1.223775,-9.68161 -1.537756,-9.99559 -0.05981,-0.0598 -0.193921,1.95103 -0.298026,4.46854 -0.223333,5.40063 -1.088591,16.86182 -1.288034,17.06127 -0.07646,0.0765 -3.62403,-1.65441 -7.883491,-3.84638 -4.259458,-2.19196 -7.777684,-3.95217 -7.818279,-3.91158 -0.04059,0.0406 0.906937,0.89018 2.105621,1.88797 2.155386,1.79415 7.360883,5.31912 10.325242,6.99188 1.121024,0.63258 1.494052,0.98138 1.39246,1.30201 -0.07632,0.24087 -1.397095,4.48608 -2.935049,9.43378 l -2.796281,8.99584 0.993775,2.05052 c 0.546576,1.12778 1.022755,2.05052 1.058175,2.05052 0.03542,0 1.351031,-0.83782 2.923585,-1.86182 z m 88.345927,-11.05802 c 1.06779,-1.50336 2.90697,-4.27078 4.08706,-6.14981 1.9544,-3.11193 2.10842,-3.45364 1.7281,-3.83395 -0.22964,-0.22964 -0.41752,-0.52191 -0.41752,-0.64948 0,-0.39415 2.44607,-3.19746 6.37552,-7.30664 3.75687,-3.9287 5.99119,-6.60343 5.73235,-6.86227 -0.2169,-0.2169 -4.06718,2.94246 -6.76922,5.5545 -1.3566,1.31143 -3.42861,3.54869 -4.60447,4.97169 -1.84003,2.22678 -2.1968,2.54135 -2.56053,2.25768 -0.23243,-0.18127 -2.23989,-1.91279 -4.46102,-3.84781 -3.20623,-2.79323 -4.07336,-3.42713 -4.20804,-3.07616 -0.26613,0.69354 0.13597,14.05869 0.56856,18.89751 0.21465,2.40109 0.39777,4.54421 0.40692,4.7625 0.024,0.57171 1.84828,-1.51612 4.12229,-4.71776 z m -41.27887,-34.43153 c 3.9713,-1.80067 7.96277,-4.67339 11.04336,-7.94809 1.12889,-1.20002 1.99057,-2.24382 1.91483,-2.31955 -0.0757,-0.0757 -0.95634,0.41154 -1.95689,1.08283 -2.22333,1.4917 -11.82932,6.26535 -12.60771,6.26535 -1.47169,0 -10.844925,-4.44311 -13.346638,-6.32657 -1.29882,-0.97785 -2.13503,-1.34125 -2.13503,-0.92786 0,0.0847 0.44116,0.69229 0.98036,1.3503 1.146,1.39855 3.878703,3.67755 6.716108,5.60107 1.90217,1.28952 6.94326,4.00722 7.43301,4.00722 0.12539,0 1.00676,-0.35311 1.9586,-0.7847 z m 1.27909,-12.30712 c 2.98526,-0.53195 5.22109,-1.70724 7.29844,-3.83651 0.98184,-1.00638 2.34528,-2.07682 3.175,-2.49269 4.55202,-2.28162 6.85893,-5.67836 6.87186,-10.1183 0.0146,-4.995647 -2.38623,-8.864077 -8.06351,-12.992827 -1.08684,-0.790402 -2.49579,-2.170921 -3.41004,-3.341242 -2.4164,-3.093207 -4.33972,-4.086828 -8.36391,-4.320948 -3.98962,-0.232105 -7.14896,0.835763 -8.91456,3.013149 -2.005875,2.473704 -3.427078,3.890328 -5.451948,5.434421 -2.6698,2.03589 -3.72091,3.10309 -4.98965,5.06609 -2.32218,3.59287 -2.74774,8.118037 -1.09256,11.617707 1.05274,2.22589 3.12243,4.35052 5.31738,5.45853 0.89237,0.45046 1.73506,0.81903 1.87263,0.81903 0.13758,0 1.001503,0.78246 1.919823,1.7388 1.85414,1.93088 4.312195,3.29285 6.840965,3.79047 0.80036,0.15749 1.69333,0.33324 1.98437,0.39056 1.10902,0.21838 2.98678,0.13352 5.00571,-0.22624 z m -13.414825,-7.29046 c -2.008863,-0.50286 -3.611323,-1.59966 -4.316023,-2.95407 -0.70136,-1.348 -0.33869,-3.65116 0.57495,-3.65116 0.2194,0 0.96508,0.52959 1.65707,1.17687 0.69199,0.64727 1.587613,1.30212 1.990263,1.45521 0.93691,0.35621 3.188655,0.35513 4.475205,-0.002 1.94347,-0.53971 3.43706,-2.47914 2.99116,-3.88404 -0.0838,-0.26404 -0.71655,-0.67352 -1.43509,-0.92872 -2.66092,-0.94508 -3.87935,-2.67533 -3.69348,-5.244997 0.14151,-1.95627 1.00245,-3.11973 3.05401,-4.12716 l 1.52355,-0.74817 h 3.43959 3.43958 l 1.32292,0.70142 c 1.51583,0.8037 2.35631,1.62248 2.7605,2.68925 0.67752,1.78818 0.0435,4.385517 -1.39359,5.708887 -0.378,0.3481 -1.31644,0.84513 -2.08543,1.10452 l -1.39815,0.47162 -0.079,0.89396 c -0.16186,1.83122 1.98903,3.36778 5.01865,3.58527 2.38562,0.17125 2.89852,-0.001 4.60903,-1.55032 0.80918,-0.73279 1.61112,-1.28623 1.78211,-1.22987 0.56257,0.18543 0.99517,1.3659 0.87427,2.38569 -0.16802,1.41714 -1.2383,2.67408 -3.00892,3.53366 -1.35141,0.65607 -1.82163,0.7404 -4.16905,0.7477 -3.07568,0.01 -4.80432,-0.47578 -6.61365,-1.85688 l -1.16282,-0.8876 -0.82084,0.76679 c -1.2696,1.18599 -3.48273,1.91779 -6.08705,2.01276 -1.23693,0.0451 -2.699315,-0.0307 -3.249755,-0.1685 z m -19.956563,-2.07399 c -3.796783,-3.70367 -5.633277,-8.00255 -5.633277,-13.186437 0,-4.57898 1.162738,-7.961015 4.483351,-13.040631 2.342586,-3.583512 2.405646,-3.804373 1.287316,-4.508802 -1.17673,-0.741214 -3.263404,-0.541763 -5.9252,0.566343 -5.132625,2.13672 -10.389996,6.9474 -13.064238,11.95425 l -0.915649,1.71432 1.13189,1.49917 c 4.469519,5.919837 8.912564,10.200997 14.006743,13.496407 1.844005,1.19288 5.489454,3.05957 5.975024,3.05957 0.13601,0 -0.46967,-0.69939 -1.34596,-1.55419 z m 61.701148,0.36067 c 3.37731,-1.6913 6.91591,-4.29753 10.41394,-7.67003 3.37567,-3.254527 7.70021,-8.450507 7.70733,-9.260417 0.006,-0.72404 -2.19201,-4.095342 -4.16562,-6.38815 -4.21787,-4.900052 -11.13074,-8.751789 -14.68667,-8.183173 -1.24572,0.199199 -1.78049,0.553521 -1.78049,1.17971 0,0.238821 0.90055,1.801821 2.00121,3.473334 3.37212,5.121037 4.48875,7.960549 4.78841,12.176539 0.37853,5.325717 -2.01497,11.118267 -6.05408,14.651587 -0.76335,0.66776 -1.21227,1.21412 -0.99761,1.21412 0.21467,0 1.46278,-0.53709 2.77358,-1.19352 z M 91.923432,84.106051 c 0.34351,-0.25118 0.41876,-0.531284 0.28542,-1.062519 -0.32788,-1.306372 -1.87263,-2.098138 -3.14266,-1.610781 -0.61292,0.235199 -0.54179,1.832793 0.11065,2.485234 0.60738,0.607377 2.03909,0.705408 2.74659,0.188066 z m 36.292578,-0.303255 c 0.23221,-0.354399 0.38378,-0.977284 0.33683,-1.384194 -0.19022,-1.648489 -2.92102,-1.336358 -3.64724,0.41688 -0.48259,1.165093 -0.0382,1.61167 1.60379,1.61167 1.06899,0 1.35523,-0.108072 1.70662,-0.644356 z M 97.861355,81.108171 c 1.9944,-3.06964 1.06599,-7.323545 -2.098723,-9.616043 -3.35532,-2.430584 -9.2502,-2.602529 -11.42382,-0.333216 -0.75081,0.783862 -1.51197,2.390364 -1.51197,3.191152 0,0.512882 0.9119,0.77755 4.23333,1.228662 2.05726,0.279416 3.80303,0.721312 4.7625,1.205505 1.21886,0.61509 2.79521,2.213663 3.64281,3.694171 1.2349,2.156978 1.37899,2.194856 2.395873,0.629769 z m 23.313485,-0.203915 c 1.98557,-3.470399 4.0221,-4.678386 9.19025,-5.45126 1.86672,-0.279162 3.42381,-0.512805 3.46019,-0.519205 0.0364,-0.0064 0.0661,-0.41075 0.0661,-0.898554 0,-1.858801 -1.89079,-3.626395 -4.44674,-4.157007 -5.70069,-1.18346 -11.48118,2.554433 -11.48118,7.424182 0,1.713606 0.86803,4.033957 1.73668,4.642387 0.30286,0.212127 0.57495,0.385686 0.60465,0.385686 0.0297,0 0.4212,-0.641802 0.87,-1.426229 z M 67.084602,66.092101 67.543363,65.240233 66.208765,63.268172 c -1.623589,-2.399091 -2.274856,-4.003024 -2.831412,-6.973181 -0.497372,-2.654292 -0.440288,-4.35831 0.158562,-4.733362 0.650449,-0.407371 3.212668,0.516671 5.375714,1.938698 1.767649,1.162089 4.488259,3.751521 5.100113,4.854204 l 0.276331,0.498004 1.739699,-1.333405 c 0.956831,-0.733372 2.10415,-1.54869 2.54959,-1.811821 0.44544,-0.263128 0.8099,-0.629108 0.8099,-0.813284 0,-0.562187 -3.405691,-3.98362 -5.668876,-5.695082 -2.393233,-1.809806 -6.600579,-3.926944 -9.043485,-4.550688 -2.667989,-0.681212 -5.576628,-1.010473 -6.16146,-0.697479 -0.923727,0.494363 -1.220042,1.997887 -1.202294,6.100543 0.01897,4.385037 0.447601,7.051953 1.871076,11.641666 0.925337,2.983572 2.890813,7.322857 3.758832,8.29858 l 0.438912,0.493371 1.622935,-1.770483 c 0.892617,-0.973768 1.82938,-2.153825 2.0817,-2.622352 z m 87.775738,2.521657 c 1.21717,-1.88944 2.02036,-3.834612 3.20059,-7.751226 1.28915,-4.27805 1.60782,-6.433102 1.61822,-10.943505 0.0114,-4.930738 -0.23733,-5.836502 -1.66894,-6.078371 -3.28698,-0.555331 -10.11946,1.850705 -14.51915,5.11288 -2.5248,1.872023 -5.9,5.211382 -5.88419,5.821704 0.006,0.239501 0.80987,0.999657 1.78594,1.68924 0.97606,0.689581 2.11134,1.523018 2.52283,1.852083 l 0.74818,0.598297 0.55266,-0.79375 c 1.37987,-1.981808 4.42585,-4.652742 6.33988,-5.559255 2.54452,-1.205122 3.42768,-1.371785 4.03754,-0.761931 1.19647,1.196475 -0.47528,7.798802 -2.93037,11.572996 -1.16492,1.790827 -1.34154,2.214026 -1.06375,2.548821 1.81925,2.192602 3.73854,4.237474 3.97548,4.235596 0.16071,-0.0013 0.739,-0.695884 1.28508,-1.543579 z"
       id="path1" />
  </g>
</svg>
