<?xml version="1.0" encoding="UTF-8" standalone="no"?>
<!-- Created with Inkscape (http://www.inkscape.org/) -->

<svg
   width="270.93286mm"
   height="400.84323mm"
   viewBox="0 0 270.93286 400.84323"
   version="1.1"
   id="svg1"
   xmlns="http://www.w3.org/2000/svg"
   xmlns:svg="http://www.w3.org/2000/svg">
  <defs
     id="defs1" />
  <g
     id="layer1"
     transform="translate(22.46632,85.323794)">
    <path
       id="path1"
       style="fill:#000000;stroke-width:0.264583"
       d="m 114.3543,-85.314503 c -60.14919,-0.02826 -120.4679667,0.0059 -121.4757907,0.130741 -1.667219,0.206518 -2.0217677,0.36706 -2.3357747,1.056266 -0.23598,0.517929 -0.3100586,47.810052 -0.3100586,198.191006 v 197.51146 l 0.6521566,0.65164 0.6521566,0.65164 121.3388508,-0.008 121.33833,-0.008 0.64388,-0.64389 0.64389,-0.64337 v -173.9098 c 6.3e-4,-95.650216 0.0792,-184.511063 0.17467,-197.468569 0.096,-12.957508 0.0966,-23.885647 -0.008,-24.284823 -0.10938,-0.435745 -0.45131,-0.828086 -0.85576,-0.981852 -0.33,-0.125466 -60.30963,-0.216171 -120.4588,-0.244429 z m 8.56692,3.562056 h 109.00833 l 0.0667,77.8898193 0.0667,77.8893027 -1.125,-0.165881 c -0.6187,-0.09131 -2.25609,-0.343244 -3.63854,-0.560173 -4.87955,-0.765678 -12.15356,-0.430888 -17.59479,0.810286 -5.22809,1.192549 -14.65509,4.769219 -20.21324,7.668783 -1.80392,0.941067 -3.33831,1.652559 -3.40961,1.581299 -0.0713,-0.07126 0.14156,-1.508881 0.47284,-3.194637 0.72597,-3.694131 0.63211,-5.411617 -0.51056,-9.318811 -0.43596,-1.490681 -1.10089,-4.645838 -1.47743,-7.011459 -2.06415,-12.96792 -5.01996,-24.470321 -8.64237,-33.632572 -1.32474,-3.350723 -1.91297,-4.505951 -3.09438,-6.076632 -2.26589,-3.012432 -8.41783,-6.65097 -18.15858,-10.739396 -5.80117,-2.434905 -5.69261,-2.372273 -6.07043,-3.488159 -0.43193,-1.275725 -2.89234,-5.2603262 -3.85868,-6.2487142 -0.42598,-0.435698 -1.34256,-1.0047653 -2.03709,-1.2645223 -0.69451,-0.25976 -1.4118,-0.589367 -1.5937,-0.732255 -0.81828,-0.642787 -0.0615,-9.5655752 0.85731,-10.1079102 1.83147,-1.0810742 2.17919,-1.4525347 3.10369,-3.3160763 1.17203,-2.362523 1.79369,-4.883665 1.79369,-7.275008 0,-1.889091 -0.42091,-3.017375 -1.37563,-3.68608 -0.71737,-0.502465 -0.69993,-1.297558 0.11059,-5.046204 0.3183,-1.472184 0.57856,-3.643432 0.58756,-4.894792 0.0143,-2.03989 -0.0519,-2.347343 -0.71675,-3.307291 -0.79389,-1.146226 -0.52991,-1.530889 0.62632,-0.912089 l 0.58291,0.312125 -0.54467,-0.75861 c -1.20121,-1.671753 -4.15086,-3.800801 -5.26531,-3.800801 -0.47212,0 -0.65777,-0.217406 -0.87489,-1.02371 -0.15163,-0.563086 -0.52228,-1.337606 -0.82372,-1.720826 -0.73081,-0.929057 -3.64358,-2.989858 -4.54597,-3.216341 l -0.72037,-0.180867 0.92139,1.530139 c 0.50665,0.841405 0.8728,1.577662 0.8139,1.636592 -0.0589,0.05893 -0.92088,-0.719275 -1.91564,-1.72961 -0.99475,-1.010338 -2.2969,-2.084856 -2.89388,-2.387968 -1.67986,-0.852946 -4.28285,-1.191177 -8.10494,-1.053165 -3.5786,0.129222 -4.14242,0.331686 -3.62355,1.301212 0.38143,0.712713 0.32444,0.759127 -0.92397,0.759127 -1.33676,0 -5.67543,0.970513 -6.17327,1.380794 -0.18248,0.150389 -0.4281,0.644804 -0.5457,1.098641 -0.17037,0.657493 -0.44832,0.911401 -1.36788,1.251087 -2.00549,0.740825 -2.71382,2.354895 -1.03353,2.354895 0.99091,0 0.97655,0.406473 -0.0336,0.928625 -1.56266,0.80808 -3.43442,3.964597 -3.43442,5.791895 0,1.409239 0.27929,1.657675 1.19166,1.059883 0.37245,-0.244039 0.75454,-0.366338 0.84904,-0.271818 0.21387,0.213881 0.8836,2.837462 1.69706,6.646623 0.53526,2.506355 0.61273,3.534878 0.55913,7.408333 -0.0579,4.190669 0.002,4.832277 0.87282,9.392709 1.30032,6.8098899 1.50995,7.4389456 3.48144,10.429854 0.95152,1.443508 1.82683,2.962047 1.9451,3.374471 0.19563,0.682062 0.0936,0.8513677 -1.12965,1.8732707 -2.94884,2.463511 -3.7212,3.2770056 -4.69532,4.9449183 -1.29278,2.213525 -1.58124,2.454274 -3.94963,3.300573 -2.78752,0.996055 -8.835706,3.7704 -10.973486,5.033285 -2.30206,1.359942 -4.974364,3.59073 -6.406844,5.34851 -2.59238,3.18107 -6.90684,16.539703 -9.77098,30.253451 -0.54057,2.588292 -1.728135,6.963828 -2.692859,9.921875 -1.95993,6.009632 -2.232977,7.815157 -1.571997,10.395231 0.41548,1.621793 0.410633,1.695212 -0.233577,3.61425 -0.38272,1.140153 -0.657324,2.565892 -0.657324,3.411678 0,0.799187 -0.07241,1.641535 -0.160714,1.87172 -0.14108,0.367679 -0.984753,0.414937 -6.945313,0.388607 C 51.023153,83.908509 45.102444,82.169584 30.184759,73.168329 26.095121,70.700661 20.124243,67.711879 17.220176,66.678803 10.83205,64.406312 4.5287458,64.172309 -2.9718732,65.928978 -4.5459852,66.29764 -5.870586,66.55758 -5.914846,66.50672 -5.959111,66.455857 -6.0400867,33.136251 -6.0951967,-7.536822 L -6.195449,-81.487864 3.8587177,-81.620155 c 5.529791,-0.07276 59.1078703,-0.132292 119.0625023,-0.132292 z m -10.16682,6.714319 c -1.34948,-0.0051 -2.68641,0.135352 -2.92747,0.425814 -0.44919,0.541227 -0.15902,1.144774 0.6475,1.347204 l 0.67283,0.168982 v 6.724654 6.724654 l -0.63562,0.241846 c -0.76957,0.292605 -1.04967,0.6961 -0.84801,1.221631 0.12372,0.322458 0.70728,0.37906 3.2644,0.31781 2.90544,-0.06959 3.11402,-0.109547 3.11402,-0.599963 0,-0.312454 -0.29505,-0.667054 -0.7276,-0.874366 l -0.72761,-0.348815 v -6.593396 -6.593396 l 0.79375,-0.410311 c 0.8998,-0.465302 0.9708,-0.710768 0.37776,-1.303797 -0.29247,-0.29247 -1.65448,-0.443483 -3.00395,-0.448551 z m -21.316015,0.02997 c -1.188185,-0.0234 -2.399894,0.06326 -2.798279,0.276469 -0.76801,0.411025 -0.617481,1.031733 0.348299,1.437122 0.77526,0.325414 1.053434,0.799415 2.824634,4.81521 1.08054,2.449814 2.619003,5.859061 3.418913,7.576281 1.42658,3.062548 1.469825,3.120699 2.268595,3.042709 0.98396,-0.09607 1.3757,-0.821548 4.830193,-8.943124 1.44049,-3.386593 2.5857,-5.704711 3.0484,-6.171716 1.46863,-1.482249 0.70139,-2.087944 -2.50269,-1.975073 -2.03866,0.07182 -2.1858,0.116202 -2.2655,0.677995 -0.0673,0.474178 0.11396,0.684128 0.8599,0.995804 0.51985,0.217202 0.94351,0.541972 0.94051,0.72192 -0.003,0.179948 -0.6652,1.934456 -1.47226,3.898987 -0.80705,1.964532 -1.71368,4.194417 -2.01435,4.955253 -0.3007,0.760836 -0.636035,1.328355 -0.745175,1.260905 -0.3742,-0.231278 -4.533781,-10.231298 -4.383711,-10.538892 0.08247,-0.169042 0.299838,-0.522815 0.482658,-0.785998 0.27935,-0.402148 0.250225,-0.539383 -0.181385,-0.859896 -0.305805,-0.227078 -1.470567,-0.360552 -2.658752,-0.383956 z m 31.720545,0.0026 c -2.57717,0 -3.545,0.253609 -3.545,0.928625 0,0.209425 0.35719,0.565411 0.79375,0.791167 l 0.79375,0.410311 v 6.484358 6.484876 l -0.92605,0.54622 c -0.88744,0.523605 -1.13663,0.988797 -0.74155,1.383894 0.10139,0.101344 1.5599,0.150821 3.24114,0.110071 2.90711,-0.07046 3.06061,-0.102156 3.13831,-0.647505 0.0585,-0.410948 -0.12888,-0.674433 -0.66146,-0.930176 l -0.7431,-0.356568 -0.0134,-6.345865 c -0.0133,-6.234742 0.0957,-7.271908 0.76378,-7.271908 0.61127,0 0.96587,-0.570408 0.68316,-1.098641 -0.22619,-0.422653 -0.60217,-0.488859 -2.78329,-0.488859 z m 9.77046,0.0021 c -1.19835,-0.03515 -2.45268,0.009 -2.84272,0.158647 -0.64712,0.248322 -0.49858,1.137203 0.24702,1.476912 l 0.6661,0.303341 -0.0708,6.756693 -0.0703,6.756694 -0.63666,0.150378 c -0.90141,0.212622 -1.34357,0.999418 -0.79271,1.41025 0.39595,0.295287 5.13811,0.331373 5.99343,0.04547 0.66437,-0.221988 0.35946,-1.203113 -0.46302,-1.489831 l -0.79375,-0.276469 v -6.582027 -6.582027 l 0.79375,-0.410311 c 0.84291,-0.435882 0.99517,-0.883796 0.47646,-1.402499 -0.16598,-0.165979 -1.30848,-0.280078 -2.50683,-0.315226 z m 112.0929,12.316044 -0.001,9.045443 c 0.005,-0.764147 0.0186,-1.528216 0.0222,-2.292367 0.008,-1.980081 0.0109,-3.960109 0.0129,-5.940206 0.005,-0.271635 -0.0253,-0.541782 -0.0341,-0.81287 z m -127.21032,20.789429 c 0.5876,0.0064 1.87076,0.402996 2.728,0.905371 0.59102,0.346363 1.4209,0.991059 1.84381,1.432471 0.42286,0.441415 0.65727,0.785421 0.5209,0.764811 -0.53689,-0.08114 -5.4069,-2.754331 -5.4069,-2.968294 -2.6e-4,-0.09509 0.11832,-0.13649 0.31419,-0.134359 z m -1.97869,3.669543 c 0.86354,0 1.45086,0.140084 1.66398,0.396875 0.1812,0.218282 0.22565,0.382989 0.0987,0.365869 -1.31392,-0.177136 -2.82568,-0.49144 -2.94659,-0.612365 -0.0828,-0.08279 0.44987,-0.150379 1.18391,-0.150379 z m 19.29701,0.375171 c 0.18399,0.07061 0.59935,0.640001 0.92294,1.265556 0.48548,0.938561 0.59274,1.599882 0.61444,3.783232 0.0282,2.829441 0.16087,3.246067 1.59628,5.027083 0.8341,1.034888 0.85565,1.130181 0.98495,4.292761 0.16492,4.03339 0.3865,4.420431 1.79938,3.143994 1.61369,-1.457892 3.47778,-1.575618 3.98115,-0.251664 0.15882,0.417263 0.15148,1.525501 -0.0191,3.034957 -0.42325,3.73634 -1.96196,6.435371 -4.19613,7.360791 -0.43002,0.178125 -0.90575,0.6411786 -1.0573,1.0288778 -0.40005,1.0234639 -1.13674,9.19638192 -0.95653,10.6127889 0.0843,0.662517 0.45486,2.6335374 0.82321,4.3800944 l 0.66972,3.1755168 -0.58807,1.5714801 c -1.06952,2.858561 -4.29712,5.24887 -9.11108,6.747909 -1.80271,0.561352 -5.62326,0.911387 -7.01145,0.642338 -2.17434,-0.421423 -4.94253,-1.70658 -5.46117,-2.535763 -0.20748,-0.331787 -0.15639,-8.9671677 0.0548,-9.1787677 0.0579,-0.058158 1.13544,0.2926486 2.39417,0.7792806 1.25873,0.486632 2.6599,0.8733991 3.1135,0.8593791 1.08853,-0.033623 4.65555,-1.4666925 6.64559,-2.6696045 2.04308,-1.234967 3.78842,-2.8709539 5.3945,-5.05653891 2.35955,-3.21096749 2.46224,-4.00852349 0.26149,-2.02985029 -2.01911,1.81535705 -5.35963,3.7774951 -7.77266,4.5650961 -2.49706,0.815026 -6.43601,0.997325 -8.18761,0.379305 -2.07187,-0.731022 -5.83122,-5.0962737 -6.45077,-7.4904989 -0.16182,-0.625295 -0.7257,-3.5611172 -1.25315,-6.5241495 -0.79947,-4.493805 -0.93449,-5.766423 -0.80977,-7.672917 0.0822,-1.25707 0.22002,-3.892992 0.30592,-5.857523 0.16758,-3.830916 0.6696,-6.787799 1.46968,-8.654252 0.65709,-1.532982 1.91568,-2.087182 5.84667,-2.575037 1.64648,-0.204335 3.93524,-0.687447 5.086,-1.073836 1.69193,-0.568111 2.90363,-0.750909 6.33398,-0.955498 2.33309,-0.139147 4.39247,-0.19514 4.57646,-0.12454 z m -97.528412,9.713102 c -1.436073,0.08803 -2.805719,0.375492 -3.82664,0.845427 -3.539993,1.62946 -5.189049,3.887811 -5.391402,7.383012 -0.09049,1.563391 -0.0049,2.369538 0.351916,3.317627 1.057434,2.809534 3.337565,4.915991 6.369637,5.884395 2.162942,0.690819 5.117935,0.67806 7.420736,-0.03204 2.426838,-0.748326 3.792283,-1.466502 7.307564,-3.842143 1.886849,-1.275159 3.072841,-1.91991 3.267501,-1.776636 2.12002,1.560489 5.899004,3.937072 7.307564,4.596102 2.55167,1.193866 4.240464,1.575797 6.949964,1.571997 2.7446,-0.0038 4.153979,-0.278447 6.065779,-1.182873 3.23406,-1.529947 4.931956,-3.946408 5.125786,-7.295162 0.1338,-2.310974 -0.176925,-3.530604 -1.329635,-5.21777 -1.852264,-2.711043 -5.274885,-4.187513 -9.164815,-3.95428 -3.68803,0.221128 -6.826245,1.643259 -11.772925,5.335075 l -2.34456,1.749764 -2.814815,-2.136821 c -3.092953,-2.348055 -6.639447,-4.214885 -9.297107,-4.893758 -1.286087,-0.328521 -2.788476,-0.439944 -4.224548,-0.351917 z m 94.317752,0.765328 c -1.46092,-0.04785 -3.62597,0.539954 -5.76915,1.621607 -1.57984,0.797336 -1.95055,1.235853 -1.66708,1.974556 0.0994,0.25909 0.34464,0.369914 0.62373,0.282154 4.08344,-1.2842 5.31157,-1.530422 6.99596,-1.404049 1.57533,0.11819 1.79095,0.0771 1.93269,-0.369487 0.19473,-0.613537 -0.23422,-1.474398 -0.91674,-1.83968 -0.30347,-0.162413 -0.71243,-0.24915 -1.19941,-0.265101 z m -18.03145,0.89762 c -0.28863,0.01773 -0.52116,0.08207 -0.67593,0.202572 -0.53772,0.418447 -0.83324,1.540949 -0.52865,2.006079 0.16955,0.258941 0.41064,0.266949 1.07435,0.03566 0.98073,-0.341889 2.45285,-0.03044 4.66535,0.987537 1.65124,0.75973 2.24896,0.789497 2.24896,0.111621 0,-1.29965 -4.76371,-3.467583 -6.78408,-3.343465 z m -77.207176,1.479496 c 2.156479,-0.153767 4.577697,0.481458 7.355623,1.920297 2.140612,1.10875 6.265584,4.055559 6.448702,4.606953 0.215,0.647319 -4.872675,3.955552 -7.443473,4.840015 -2.311982,0.795416 -6.136566,0.701839 -8.39587,-0.205155 -1.061058,-0.425961 -2.579694,-1.866685 -3.153813,-2.992066 -0.558588,-1.094933 -0.69229,-3.434243 -0.260966,-4.568713 0.458311,-1.205447 2.093827,-2.74774 3.378088,-3.185335 0.66339,-0.22604 1.352882,-0.36474 2.071709,-0.415996 z m 30.737658,0.0956 c 0.525433,-0.03642 1.03149,-0.02807 1.51257,0.02584 4.02529,0.451096 6.579027,2.867947 6.582027,6.22701 4.7e-4,0.823343 -0.184207,1.811531 -0.425297,2.27583 -0.56623,1.090549 -2.041855,2.358869 -3.182235,2.735234 -3.49051,1.151966 -6.900991,0.627315 -10.693921,-1.644861 -2.05849,-1.233149 -5.098813,-3.517534 -5.095813,-3.828707 0.0033,-0.331896 4.522231,-3.455512 6.215641,-4.296379 1.76139,-0.874621 3.510729,-1.384708 5.087028,-1.493965 z m 61.793128,2.132686 c -0.94092,0.143902 -1.78799,0.64216 -2.26705,1.453141 -0.24826,0.420285 -0.45165,0.835218 -0.45165,0.921908 0,0.275678 0.39249,0.170989 1.02836,-0.274402 0.36428,-0.255126 0.68632,-0.328667 0.78652,-0.179317 0.32711,0.487685 1.03644,0.565769 1.75441,0.19327 0.39854,-0.206766 1.12045,-0.375688 1.60456,-0.375688 1.20491,0 1.33751,-0.37833 0.3731,-1.065051 -0.85286,-0.607281 -1.88733,-0.817763 -2.82825,-0.673861 z m -12.82712,0.960665 c -0.59101,-0.04844 -1.21348,0.07923 -1.81075,0.38809 -1.09141,0.564388 -1.02358,1.183907 0.12971,1.183907 0.50075,0 0.98394,0.119062 1.07384,0.264583 0.18785,0.303947 0.32729,0.306298 1.05833,0.01964 0.29104,-0.114149 0.85659,-0.113703 1.25677,5.17e-4 1.00585,0.287073 0.96288,-0.304181 -0.0863,-1.187008 -0.47113,-0.396429 -1.0306,-0.621289 -1.6216,-0.669726 z m 4.67155,0.609265 c -0.43455,0.221947 -0.92641,1.275016 -1.27951,2.838586 -0.23513,1.041181 -0.42737,2.131065 -0.42737,2.422075 0,1.082622 0.72984,-0.0711 1.57407,-2.488737 0.62655,-1.794365 0.76476,-2.485176 0.54105,-2.704745 -0.12495,-0.122639 -0.2634,-0.141141 -0.40824,-0.06718 z m 22.34333,1.053166 c -0.9014,0.163818 -1.94333,1.517693 -1.69757,2.687691 0.46847,2.230382 0.45491,2.648281 -0.10542,3.155363 -0.30314,0.27433 -0.55138,0.728909 -0.55138,1.010791 0,0.504755 0.0129,0.504961 0.85886,0.01085 1.75972,-1.027732 2.59274,-3.272717 1.61489,-4.353223 -0.40963,-0.452646 -0.39161,-0.524817 0.28887,-1.155485 0.6019,-0.557813 0.66902,-0.74065 0.39377,-1.072286 -0.21635,-0.260693 -0.50155,-0.338309 -0.80202,-0.283703 z m -17.92655,5.739184 c -0.0375,0.0483 -0.0344,0.151905 0.0295,0.321944 0.64447,1.714902 0.37916,2.299626 -0.81856,1.803508 -0.43997,-0.182235 -1.25499,-0.295057 -1.81074,-0.251147 -0.55574,0.04391 -1.40217,-0.01522 -1.88102,-0.131259 -0.63703,-0.154363 -1.04569,-0.09649 -1.52342,0.216525 -0.62714,0.410922 -0.66478,0.40178 -0.95757,-0.240813 -0.16766,-0.367959 -0.40494,-0.669209 -0.5271,-0.669209 -0.37743,0 -0.24498,1.437201 0.18965,2.057755 0.42058,0.600435 1.03141,0.770416 1.28623,0.358118 0.20334,-0.329009 4.35927,-0.294471 5.37022,0.04444 0.7136,0.239263 0.93691,0.206617 1.38906,-0.202572 0.64108,-0.580173 0.68806,-1.46552 0.13487,-2.535246 -0.29087,-0.562517 -0.76842,-0.91695 -0.88108,-0.772046 z m -2.66392,6.6988162 c -1.09633,9.147e-4 -2.15751,0.2635715 -3.30316,0.7880656 -1.41819,0.6492664 -1.69462,0.9320815 -1.29759,1.3291179 0.29372,0.2937113 10.13377,0.075116 10.16527,-0.225826 0.0152,-0.1455208 -0.90777,-0.6444659 -2.05104,-1.1089763 -1.28588,-0.5224627 -2.41715,-0.7832958 -3.51348,-0.7823812 z m 0.16278,3.8793498 c -2.42663,0.00638 -3.32508,0.5882885 -1.96887,1.2753744 1.26232,0.6395138 4.04473,-0.1420551 3.52123,-0.9890869 -0.0986,-0.1594829 -0.79695,-0.2884075 -1.55236,-0.2862875 z m 18.68723,8.29045 c 0.0855,-0.08549 0.45584,-0.080314 0.82321,0.011886 0.48443,0.121584 1.2148,1.0066743 2.65823,3.2204753 1.98122,3.0385647 1.99006,3.0601327 1.99006,4.8451817 0,2.371259 -0.7641,13.528984 -0.94671,13.824479 -0.27803,0.44986 -0.97096,0.212483 -4.29328,-1.469677 -4.02545,-2.038183 -4.5945,-2.207956 -5.47046,-1.634009 -0.52225,0.342152 -0.62256,0.578401 -0.50178,1.182357 0.12898,0.644943 0.0223,0.834544 -0.73432,1.305346 -2.67988,1.667539 -6.7476,7.46156 -5.23844,7.46156 0.15253,0 1.0834,-0.803672 2.0686,-1.785937 1.94371,-1.937883 4.26848,-3.710117 4.26848,-3.254065 0,0.156403 -0.53578,2.080223 -1.19063,4.275191 -0.7343,2.461307 -1.19062,4.50844 -1.19062,5.341276 0,0.760733 0.0983,1.24024 0.22479,1.098641 0.12351,-0.138245 0.64475,-1.560835 1.15858,-3.161564 2.06319,-6.427679 3.13901,-8.600325 4.25814,-8.597925 0.31687,7.09e-4 1.69388,0.417428 3.05976,0.926042 3.49015,1.299644 5.01285,1.20579 5.62912,-0.347783 0.15523,-0.391334 0.38153,-3.314982 0.50281,-6.496761 0.12129,-3.181781 0.27141,-5.835434 0.33331,-5.897314 0.0619,-0.06188 0.99049,0.236092 2.06396,0.662492 1.07346,0.4264 3.14244,1.220085 4.59765,1.763716 3.72822,1.39278 7.05259,3.101389 9.56944,4.918047 2.20665,1.592763 2.73369,1.826668 2.73369,1.212845 0,-0.896297 -3.62197,-3.334456 -7.89875,-5.316471 -2.87036,-1.330235 -8.30545,-3.401119 -9.7441,-3.712952 -1.02483,-0.222128 -1.6635,-0.86012 -1.08366,-1.082621 1.09069,-0.418547 13.52964,4.790234 17.40359,7.287927 3.38397,2.181775 3.87411,3.065793 2.18281,3.935677 -2.52777,1.30012 -6.00215,6.688786 -8.0486,12.483476 l -0.88109,2.494938 -0.0816,-1.719791 c -0.0451,-0.945885 0.0442,-3.109443 0.19843,-4.807976 0.3524,-3.88435 0.35072,-5.510774 0.009,-5.510774 -0.83143,0 -2.37453,8.461689 -2.37453,13.020394 0,2.01645 -0.0202,2.08199 -0.72761,2.361096 -0.52417,0.206809 -2.281,0.204065 -6.28385,-0.01034 -8.31247,-0.445071 -13.86856,-0.392483 -14.93914,0.141594 -0.70766,0.353029 -1.45995,0.408187 -4.14135,0.304891 -3.01773,-0.11625 -3.2768,-0.08879 -3.2768,0.346749 0,0.260119 0.11232,0.542512 0.24959,0.627352 0.13729,0.08484 1.7744,0.195599 3.63802,0.245979 l 3.38843,0.09147 0.13229,2.785876 c 0.10906,2.296655 0.22524,2.889023 0.66146,3.370337 0.45063,0.497218 0.52995,0.962522 0.53795,3.135209 0.005,1.403254 0.0346,4.658699 0.0661,7.234701 l 0.0574,4.683952 1.16168,0.799434 1.16221,0.799434 0.15451,4.306714 c 0.0849,2.368497 0.21657,7.044635 0.29197,10.391614 0.12813,5.685145 0.72773,30.109114 0.76533,31.172254 0.0164,0.46468 0.0296,0.46468 0.38705,0 0.308,-0.40033 0.34301,-2.05246 0.20878,-9.8733 -0.19661,-11.456722 -0.40175,-20.014352 -0.68472,-28.574996 -0.11767,-3.56526 -0.1108,-6.584453 -0.003,-6.709151 0.1161,-0.124696 0.38864,0.0539 0.60565,0.396875 0.30964,0.489365 0.43032,2.047563 0.55965,7.238318 0.0907,3.63802 0.22026,7.686145 0.28836,8.995833 0.0682,1.309687 0.24573,7.084222 0.39429,12.832292 0.31838,12.318319 0.43082,14.559669 0.74776,14.876609 0.29761,0.29761 0.66826,-9.45736 0.46974,-12.36307 -0.0795,-1.164153 -0.21066,-5.212291 -0.29146,-8.995831 -0.0808,-3.783542 -0.27107,-8.903229 -0.42323,-11.377083 -0.15222,-2.473855 -0.2382,-5.832136 -0.1912,-7.46311 l 0.0853,-2.965711 1.16427,0.782898 c 0.64038,0.430427 1.48767,0.782381 1.88309,0.782381 0.39539,0 1.5709,-0.493162 2.61225,-1.096057 1.04134,-0.602896 1.94106,-1.04845 1.99936,-0.99012 0.0583,0.05833 -0.17789,3.736416 -0.52503,8.173661 -0.34713,4.437245 -0.75925,10.270385 -0.91623,12.962516 -0.47789,8.19592 -1.0549,14.229656 -1.74356,18.234026 -0.44237,2.57212 -0.56859,3.90089 -0.38809,4.08141 0.33488,0.33486 0.93565,-1.03973 1.45728,-3.33313 0.47437,-2.08547 1.37126,-10.810999 1.73374,-16.865639 0.15246,-2.54661 0.32632,-5.285053 0.38602,-6.085417 0.0597,-0.800365 0.18255,-2.94349 0.27285,-4.7625 0.1619,-3.262606 0.81972,-11.009759 1.06867,-12.582177 0.10168,-0.642396 0.37042,-0.926106 1.30948,-1.382345 0.76009,-0.369274 1.22828,-0.788898 1.31258,-1.176156 0.0721,-0.33111 0.3793,-2.864217 0.68265,-5.629113 0.81954,-7.46938 0.9037,-7.77073 2.28668,-8.184514 0.56965,-0.170439 0.57411,-0.142484 0.6842,4.403349 0.0609,2.516198 0.26744,5.838698 0.45889,7.383529 l 0.34829,2.809131 -0.85937,3.143994 c -1.48659,5.440539 -3.51202,12.127299 -3.7729,12.456087 -0.1379,0.173775 -0.68802,0.352365 -1.22267,0.396875 -0.92245,0.07679 -0.97104,0.128387 -0.95704,1.007174 0.008,0.509323 0.75234,4.688402 1.65364,9.286771 0.90133,4.59836 1.63866,8.679851 1.63866,9.070241 0,0.3904 -0.1953,1.15242 -0.43408,1.69344 l -0.43408,0.98392 -0.25477,-1.18287 c -0.22712,-1.05591 -0.29071,-1.13236 -0.59686,-0.71366 -0.18862,0.25795 -0.42363,0.90938 -0.52193,1.44746 -0.0983,0.53808 -0.47001,2.02175 -0.82579,3.29696 -0.6077,2.17814 -0.62118,2.36762 -0.22531,3.13314 0.23171,0.44818 0.36921,0.86741 0.30541,0.93121 -0.0638,0.0638 -1.70983,0.57559 -3.65766,1.1374 -5.29937,1.52847 -12.83114,2.59886 -21.13618,3.00447 -0.99483,0.0486 -1.19062,0.1454 -1.19062,0.58756 0,0.48834 0.20415,0.53556 2.64583,0.61236 5.05545,0.15904 11.42028,-0.64516 18.62832,-2.35386 1.80523,-0.42793 3.32399,-0.73633 3.37499,-0.68523 0.23254,0.23253 -0.99974,0.9589 -2.73162,1.61024 -2.19898,0.82703 -4.44744,2.35287 -5.4994,3.73207 -0.41913,0.54948 -1.26525,1.19284 -1.96267,1.4919 -2.28134,0.97831 -6.67046,2.05757 -10.5606,2.59674 -4.54477,0.6299 -4.80412,0.64047 -4.94337,0.20567 -0.22124,-0.69072 -0.69942,-4.8742 -0.67282,-5.88698 0.0153,-0.58209 -0.0536,-5.467 -0.15348,-10.85515 -0.23215,-12.521051 0.40101,-35.687828 1.34875,-49.337552 1.51796,-21.862375 2.29604,-27.277967 4.31757,-30.052946 0.753,-1.033648 3.4572,-3.798338 6.21564,-6.355168 1.17033,-1.084778 1.74423,-1.944277 2.9161,-4.365625 0.80253,-1.658207 1.89716,-4.478087 2.43241,-6.266284 l 0.97307,-3.2509641 -0.59325,-1.5859497 c -0.3263,-0.8723362 -0.5232,-1.6559958 -0.4377,-1.7414958 z m -25.48475,3.1011028 v 0.6149495 c 0,0.338273 -0.41292,2.6258317 -0.91777,5.0839277 -0.50485,2.458095 -0.99784,5.15734 -1.09554,5.998083 -0.1643,1.413182 -0.21142,1.4981 -0.62425,1.124479 -1.22192,-1.105831 -1.42121,-0.0023 -0.26355,1.459343 1.10085,1.389949 2.25861,4.032921 3.1042,7.085872 0.63894,2.306648 0.70972,3.005562 0.71572,7.057967 0.004,2.473855 -0.26035,7.891198 -0.58756,12.038542 -0.32718,4.147344 -0.77593,10.279063 -0.99736,13.626042 -0.82412,12.458393 -2.22004,25.743742 -3.961,37.703125 -1.22352,8.40467 -1.84051,14.29762 -1.77301,16.93333 0.0519,2.0277 -0.38766,5.5957 -0.8015,6.504 -0.34695,0.76142 -0.62764,0.76843 -4.30775,0.10851 -4.51406,-0.80946 -9.443923,-2.22948 -10.412803,-2.9993 -0.27207,-0.21612 -0.334166,-0.92701 -0.257866,-2.94141 0.05532,-1.46102 0.186188,-2.79282 0.290938,-2.95951 0.1374,-0.21865 0.748465,-0.12562 2.193665,0.33332 2.55834,0.81242 6.456186,1.43975 9.356016,1.50585 2.10693,0.048 2.26963,0.0139 2.26963,-0.47491 0,-0.53704 -0.0495,-0.55263 -3.50676,-1.0852 -0.82791,-0.12753 -0.85534,-0.17037 -0.709,-1.1126 0.43932,-2.82857 0.81174,-7.62464 0.60926,-7.84603 -0.53735,-0.58752 -0.86271,0.58507 -1.24178,4.47311 l -0.40101,4.11293 -0.81494,-5.2e-4 c -1.59801,-7.1e-4 -5.324021,-0.79905 -5.974311,-1.28002 -1.02336,-0.75691 -1.751822,-2.28215 -2.214852,-4.63693 -0.87363,-4.44475 -1.036366,-8.378778 -0.864546,-20.937745 0.09153,-6.693958 0.167431,-14.224661 0.167431,-16.734896 9.5e-4,-3.283275 0.08787,-4.564063 0.308509,-4.564063 0.16867,0 0.91532,0.459379 1.65933,1.021127 2.03565,1.536919 2.318839,1.566816 4.157369,0.432015 0.87096,-0.537593 1.64543,-0.916156 1.72083,-0.840776 0.0754,0.07538 -0.0588,2.677089 -0.29818,5.781559 -0.41193,5.342184 -0.709725,7.843017 -2.436025,20.461284 -0.62236,4.5496 -0.7212,6.145107 -0.7059,11.377085 0.01696,5.74816 0.266473,7.98522 0.828373,7.42281 0.10507,-0.10516 0.202508,-3.128 0.216008,-6.71742 0.02252,-5.951175 0.111777,-7.179079 1.011307,-13.934559 1.399487,-10.509779 1.914227,-15.193068 2.269117,-20.6375 0.30633,-4.69991 0.31993,-4.771192 1.04489,-5.423958 0.40404,-0.363802 0.86933,-0.919005 1.03353,-1.233516 0.1642,-0.31451 0.72886,-3.231542 1.25522,-6.482292 0.52634,-3.25075 1.13055,-6.245691 1.34256,-6.655925 0.44542,-0.861991 1.1467,-4.30357 1.1467,-5.627563 0,-0.784133 0.086,-0.902787 0.65474,-0.902787 0.56549,0 0.63957,0.09928 0.54157,0.727604 -0.0624,0.400182 -0.1777,2.334948 -0.2558,4.299479 -0.215,5.406141 -1.16035,21.178948 -1.4671,24.473958 -0.14902,1.600729 -0.38664,4.220105 -0.52761,5.820834 -0.69802,7.926901 -0.88243,9.71468 -1.60559,15.54117 -0.8092,6.519755 -0.95344,8.932795 -0.53382,8.932795 0.41424,0 1.01963,-3.69279 1.73581,-10.58334 0.21931,-2.11005 0.56793,-5.443803 0.77412,-7.408334 0.45852,-4.368549 0.47453,-4.56352 1.8805,-22.621875 0.52618,-6.758294 1.65104,-18.187939 1.83762,-18.671211 0.13282,-0.344024 0.53378,-0.395667 2.34197,-0.300757 1.80229,0.0946 2.24509,0.03855 2.54558,-0.323495 0.21656,-0.260953 0.26652,-0.532485 0.12351,-0.671277 -0.25704,-0.249507 -7.4736,-0.691561 -17.132288,-1.049031 -3.26843,-0.120968 -6.075185,-0.301814 -6.237345,-0.402043 -0.88096,-0.544452 0.622928,-0.674894 7.783503,-0.674894 7.27673,0 8.64871,-0.125251 7.7432,-0.707967 -0.18425,-0.118586 -3.69019,-0.258269 -7.79126,-0.310059 -5.537124,-0.06992 -7.488197,-0.177063 -7.579897,-0.415995 -0.0679,-0.176961 -0.01154,-2.74296 0.125574,-5.702494 0.13706,-2.959531 0.203694,-5.570681 0.147794,-5.802747 -0.15558,-0.64603 -1.138561,1.753316 -1.344621,3.28197 -0.09805,0.727605 -0.252965,1.799167 -0.344165,2.38125 l -0.165881,1.058334 -0.222725,-0.79375 c -0.12243,-0.436563 -0.237282,-2.41268 -0.255282,-4.391464 -0.02625,-2.87438 0.05567,-3.778781 0.408761,-4.497916 0.90958,-1.852557 6.18276,-5.309569 12.047322,-7.898226 3.63347,-1.603811 4.24264,-1.800617 4.24264,-1.369942 0,0.127093 -0.98226,0.62011 -2.18281,1.09554 -2.58177,1.022416 -5.652412,2.527706 -5.867862,2.87631 -0.17147,0.277461 2.122132,-0.381028 5.056022,-1.451074 1.0719,-0.390949 1.99817,-0.661604 2.05827,-0.601514 0.0601,0.06009 -0.61185,1.356969 -1.49345,2.881995 -2.00724,3.472302 -2.50641,4.827034 -2.10374,5.710763 0.59928,1.315313 2.08047,1.38704 4.7072,0.228409 l 1.36374,-0.601513 0.68678,0.716752 c 0.66633,0.695473 0.68627,0.816302 0.68627,4.127396 0,1.876102 -0.13208,4.763496 -0.29353,6.416663 -0.16147,1.653167 -0.22359,3.075391 -0.13849,3.160531 0.29396,0.293958 0.9064,-0.470976 1.05575,-1.318783 0.0824,-0.467757 0.34297,-3.231844 0.57929,-6.142261 0.2363,-2.910416 0.48903,-5.351198 0.56173,-5.423958 0.27876,-0.279051 1.37714,1.353067 1.81436,2.695959 0.52809,1.622037 1.0615,2.331124 1.75338,2.331124 0.63553,0 0.61662,-0.330693 -0.14625,-2.533178 -1.10871,-3.200921 -2.82749,-6.83793 -3.5357,-7.481714 -0.94025,-0.854718 -1.98728,-0.643542 -4.46743,0.90227 -1.08715,0.677593 -2.04073,1.168383 -2.11873,1.090373 -0.17589,-0.175901 3.98694,-8.196731 5.92935,-11.424626 1.54115,-2.561064 2.86252,-4.0909384 4.23179,-4.8989254 z m 5.6162,2.2148518 c -0.22712,0.2271294 0.53304,2.0353384 1.17719,2.8008624 1.04304,1.239607 2.2128,1.027608 1.53737,-0.278536 -0.38928,-0.75275 -2.51191,-2.7249684 -2.71456,-2.5223264 z m 23.71586,7.3349524 c -0.10178,-0.156367 -0.22498,-0.01343 -0.35967,0.552421 -0.27961,1.174681 -0.57461,5.112886 -0.45682,6.097303 0.16589,1.386543 0.68102,1.101344 0.89607,-0.496094 0.33947,-2.52146 0.22618,-5.684527 -0.0796,-6.15363 z m 25.27133,8.159192 c 0.44323,0 1.30332,1.061141 2.3828,2.940389 2.2189,3.862811 7.039,22.723568 9.28987,36.350236 0.31162,1.886821 0.32419,2.564491 0.0424,2.226738 -0.68368,-0.818222 -4.00988,-6.771505 -4.43539,-7.938534 -0.67206,-1.843154 -1.16353,-1.800295 -0.91416,0.07958 0.26059,1.964257 1.01962,3.759822 2.8298,6.692615 0.89757,1.454176 2.03558,3.298609 2.52853,4.098974 1.16771,1.89593 1.97855,4.524805 1.96215,6.360336 -0.0188,2.095916 -1.22878,7.903084 -2.01899,9.689847 -0.36928,0.835046 -1.37792,2.66152 -2.24173,4.059184 -1.95899,3.16978 -2.55186,4.496883 -2.00814,4.496883 0.20892,0 0.86479,-0.56554 1.45727,-1.256771 0.59246,-0.691219 1.07901,-1.122707 1.07901,-0.958597 0.003,0.47094 -4.06458,9.081234 -5.44153,11.519704 -0.68477,1.21268 -1.8292,3.05509 -2.54352,4.09381 -1.97757,2.8756 -2.04306,2.91092 -2.99361,1.63142 -2.17082,-2.92211 -7.05139,-6.08359 -10.05417,-6.51278 -0.72761,-0.10399 -1.3223,-0.30638 -1.3193,-0.4501 0.002,-0.14373 0.39933,-1.42446 0.88315,-2.845816 0.77779,-2.28505 1.07566,-2.797349 2.56987,-4.425569 1.9073,-2.07836 2.15165,-2.693547 1.73271,-4.357357 -0.48799,-1.937944 -0.37843,-4.197315 0.24133,-4.985226 0.53531,-0.680521 0.53652,-0.680594 1.91823,-0.275435 0.76041,0.22298 1.99197,0.751645 2.7373,1.174605 1.45429,0.825294 2.07559,0.94728 2.37298,0.466122 0.21071,-0.340976 -1.66418,-2.098985 -3.74809,-3.514514 -2.21491,-1.504511 -2.60138,-2.33463 -1.61851,-3.477308 0.56155,-0.652851 1.00509,-0.796297 4.0995,-1.324466 3.85485,-0.657968 6.73964,-1.733987 6.17068,-2.301669 -0.23386,-0.233339 -1.85629,-0.330222 -5.79086,-0.346232 l -5.46582,-0.02222 -0.36587,-0.897103 c -0.51374,-1.259001 -0.23792,-2.46056 0.85886,-3.74189 0.51794,-0.60512 0.94155,-1.29576 0.94155,-1.53479 0,-0.239028 -0.55042,-1.557134 -1.22318,-2.92902 -1.76292,-3.594867 -1.78355,-4.497092 -0.26045,-11.363648 1.76485,-7.956632 2.05346,-10.313065 1.26349,-10.313065 -0.13017,0 -0.44834,0.684609 -0.70745,1.521354 -1.08233,3.495214 -3.64342,10.649479 -3.81217,10.649479 -0.30604,0 -0.82156,-6.271327 -0.81856,-9.969934 0.002,-3.46147 0.0121,-3.518352 1.3255,-7.574732 1.53231,-4.73257 2.72807,-7.474424 4.33359,-9.937894 1.24066,-1.903634 4.11203,-4.796607 4.76095,-4.796607 z m -81.458596,2.513542 0.165882,4.630208 c 0.09126,2.546615 0.299621,5.271599 0.463021,6.055445 0.32653,1.566447 0.354979,4.811384 0.05116,5.850805 l -0.19327,0.661459 -0.168465,-0.79375 C 89.544802,43.752702 89.34008,42.621608 89.18271,41.675723 88.81288,39.452794 88.421674,38.23614 88.076834,38.23614 c -0.18631,0 -0.233111,1.944419 -0.145211,6.01927 0.13364,6.195164 0.543291,9.493296 1.783871,14.352096 0.45939,1.799352 0.509284,2.566018 0.358634,5.542814 -0.09615,1.900028 -0.278336,3.45457 -0.404626,3.45457 -0.31887,0 -2.184967,-2.933001 -3.282487,-5.159375 -0.50218,-1.018645 -1.042757,-2.596219 -1.201477,-3.50573 -0.15873,-0.909505 -0.385476,-1.653645 -0.503846,-1.653645 -0.49528,0 -0.607493,3.566005 -0.178283,5.66322 0.51345,2.508827 1.174451,3.913106 3.622001,7.693587 1.76153,2.720906 1.855184,2.943621 1.855184,4.419885 0,2.073746 -0.52132,3.290993 -1.49655,3.49281 -0.41368,0.08561 -2.181159,0.272022 -3.927409,0.414445 -4.11228,0.335391 -5.219579,0.642969 -5.109249,1.418002 0.07821,0.54959 0.247329,0.586057 3.398759,0.738973 2.50846,0.121716 3.616219,0.293815 4.545459,0.704866 2.06294,0.912617 2.059823,0.89603 2.059823,10.741463 0,4.72475 -0.07241,8.778569 -0.160714,9.008749 -0.19624,0.51142 -0.118076,0.53016 -2.220536,-0.53847 -2.84958,-1.448371 -5.018323,-1.725089 -8.202083,-1.046959 -1.02272,0.217829 -1.820799,0.269729 -1.969389,0.128149 -0.143414,-0.136517 -0.264937,-3.367521 -0.284737,-7.581441 -0.01907,-4.039007 -0.130904,-8.364861 -0.248564,-9.61285 -0.20243,-2.147014 -0.174632,-2.356995 0.520382,-3.905705 l 0.734322,-1.636592 -0.466638,-2.160075 c -0.288814,-1.336509 -0.410677,-2.671846 -0.319877,-3.502629 0.08073,-0.738437 1.104486,-4.600621 2.274796,-8.582421 1.17033,-3.981799 2.616547,-9.399143 3.213757,-12.038542 3.0837,-13.628664 4.498065,-18.57858 6.267835,-21.936129 z m 50.953996,3.836458 c -0.55522,0 -2.32775,6.154589 -2.16783,7.527189 0.0831,0.713145 0.59302,-0.590478 1.45521,-3.721219 1.06151,-3.854615 1.05222,-3.80597 0.71262,-3.80597 z m 25.25996,3.214274 c -0.33063,0.38301 -0.85531,1.972652 -1.41645,4.362008 -0.69237,2.947937 -0.82649,3.810288 -0.6594,4.245736 0.073,0.19028 0.23081,0.285246 0.35037,0.211356 0.36426,-0.225121 2.18451,-8.279395 1.98541,-8.784993 -0.0613,-0.155527 -0.14972,-0.161716 -0.25993,-0.03411 z m -33.23777,2.354895 c -1.01517,-0.09813 -2.735,0.294094 -2.836,0.818555 -0.066,0.342994 0.19293,0.397686 1.56218,0.329696 1.67047,-0.08295 2.28765,-0.35667 1.96835,-0.873332 -0.0957,-0.154894 -0.35614,-0.24221 -0.69453,-0.274919 z m -18.64485,0.532268 c -0.769,0.120875 -1.44488,0.820886 -1.44488,2.008146 0,0.395923 0.2642,1.000973 0.58705,1.344621 0.77268,0.822513 1.95137,0.720136 2.65823,-0.230994 0.45503,-0.61229 0.47987,-0.817044 0.20309,-1.655713 -0.3725,-1.128705 -1.2345,-1.586936 -2.00349,-1.46606 z m 36.99412,3.160014 c -9.50751,0.0016 -14.39,0.323306 -13.80329,0.910022 0.0805,0.08047 3.35113,0.218571 7.26829,0.306441 3.91713,0.08787 7.17152,0.206723 7.23212,0.264583 0.0606,0.05785 1.14774,0.10542 2.41535,0.10542 2.39911,0 3.13924,-0.313253 2.80396,-1.187008 -0.13062,-0.340358 -1.01569,-0.400251 -5.91643,-0.399458 z m -20.26491,0.946195 c -0.88752,0.01808 -1.63388,0.118419 -1.69344,0.290422 -0.0612,0.176699 0.21419,0.35988 0.63562,0.42323 2.61192,0.392639 5.52932,-0.02046 3.59823,-0.50953 -0.62414,-0.158072 -1.6529,-0.222207 -2.54041,-0.204122 z m -35.974034,1.195276 c 1.13138,0.01427 4.140901,0.163094 6.687444,0.330729 l 4.63021,0.304891 -0.0661,1.719792 c -0.1302,3.397977 0.095,3.103996 -3.90571,5.09788 -1.965646,0.979638 -3.781099,1.771285 -4.034379,1.759065 -0.25329,-0.01223 -1.369802,-0.577772 -2.481502,-1.25677 -1.1117,-0.678997 -2.386572,-1.434201 -2.832902,-1.678451 l -0.81132,-0.444417 0.158647,-2.333708 c 0.24339,-3.573703 0.209892,-3.529851 2.655652,-3.499011 z m 43.067134,1.42937 h 5.82084 c 3.20146,0 7.69606,0.106572 9.98802,0.236678 l 4.16719,0.236678 -0.006,1.747697 c -0.007,2.029923 -0.34777,3.724657 -0.8046,4.006991 -0.17589,0.108712 -1.58349,0.512013 -3.12797,0.896069 -1.54451,0.384058 -3.56537,1.051804 -4.4912,1.48363 h -5.2e-4 c -0.92583,0.431827 -1.81879,0.773907 -1.98437,0.760677 -0.16555,-0.01323 -1.25326,-0.519523 -2.41743,-1.125512 -1.16417,-0.605991 -3.1287,-1.446872 -4.36562,-1.86862 -1.23693,-0.421746 -2.40209,-0.885778 -2.58899,-1.030945 -0.24479,-0.190132 -0.31878,-0.973895 -0.26458,-2.803446 z m -4.3651,1.322917 c -0.3353,0 -0.42476,0.903086 -0.57671,5.820833 -0.0989,3.201458 -0.30757,8.083022 -0.46354,10.847917 -0.57798,10.245413 -1.19955,30.675684 -0.94568,31.086474 0.3157,0.51077 0.63987,0.260925 0.76946,-0.593245 0.0718,-0.47294 0.25751,-5.027084 0.4129,-10.120313 0.36041,-11.812273 0.50524,-15.610143 0.80615,-21.166666 0.13396,-2.473854 0.27734,-7.057761 0.31884,-10.186459 0.0651,-4.913603 0.0214,-5.688541 -0.32142,-5.688541 z m -35.782316,0.15813 c -0.349445,0.09089 -0.689841,0.307932 -0.975651,0.671276 -0.73512,0.934543 -0.690869,1.829897 0.130741,2.651518 0.54346,0.54345 0.842013,0.646536 1.496033,0.515731 1.1929,-0.238583 1.529106,-0.629985 1.529106,-1.780253 0,-1.466912 -1.131895,-2.330933 -2.180229,-2.058272 z m 58.948856,0.97255 c -0.0931,0.03086 -0.23578,0.230557 -0.50798,0.625285 -0.4386,0.636048 -0.99844,0.955773 -2.49029,1.423686 -2.01065,0.630624 -3.23494,1.282385 -3.23494,1.721342 0,0.451461 1.38802,0.265658 3.56361,-0.476974 1.69124,-0.577297 2.20023,-0.87878 2.57038,-1.521871 0.26269,-0.456432 0.39573,-1.052319 0.30903,-1.383895 -0.0733,-0.280257 -0.11667,-0.418432 -0.20981,-0.387573 z m -8.67854,0.324528 c -1.98247,0 -3.05625,1.906744 -1.788,3.175 0.80915,0.80913 2.45627,0.721491 3.15588,-0.167948 1.12774,-1.433666 0.41198,-3.007052 -1.36788,-3.007052 z m -44.15389,0.529167 c -0.6109,0 -2.87786,1.149931 -2.87786,1.459859 0,0.414809 1.30757,0.160492 2.58847,-0.503329 0.78785,-0.408295 0.95373,-0.95653 0.28939,-0.95653 z m -10.392134,0.01757 c -0.09997,0.03188 -0.158647,0.102273 -0.158647,0.214974 0,0.127772 0.267893,0.419106 0.595313,0.647505 0.32742,0.228399 0.892971,0.417213 1.256771,0.419613 l 0.661458,0.0041 -0.79375,-0.650606 c -0.588068,-0.482044 -1.261225,-0.731262 -1.561145,-0.63562 z m 45.915544,0.817004 c -0.818,0.0946 -0.1654,0.551896 1.88567,1.222664 2.73534,0.89454 3.46433,1.009782 3.30574,0.522449 -0.2068,-0.635476 -2.32931,-1.57243 -3.88038,-1.713074 -0.60212,-0.0546 -1.03837,-0.06357 -1.31103,-0.03204 z M 104.90165,51.0767 c 0.11719,-0.0087 0.16128,0.05312 0.16278,0.183451 0.002,0.342654 -1.53204,10.68887 -1.74718,11.780676 -0.0645,0.327421 -0.30777,0.595313 -0.54002,0.595313 -0.35343,0 -0.39606,-0.226619 -0.262,-1.389063 0.0881,-0.763984 0.28241,-2.936875 0.43201,-4.828646 0.42968,-5.433742 0.47775,-5.649144 1.35238,-6.101436 0.29436,-0.152217 0.48483,-0.231599 0.60203,-0.240295 z m -12.032862,0.388606 c 0.13333,0 1.132677,0.595313 2.220537,1.322917 2.42269,1.620398 3.089415,1.666257 5.402775,0.372587 0.93448,-0.522589 1.73391,-0.909546 1.77611,-0.859896 0.0785,0.09226 -0.84217,10.263114 -1.06556,11.771892 -0.1002,0.676595 -0.43672,1.037492 -1.788525,1.918229 h -5.16e-4 c -0.9158,0.596662 -1.835167,1.081553 -2.043287,1.077453 -0.20815,-0.0041 -1.053628,-0.450595 -1.878438,-0.992187 -0.82481,-0.541588 -1.69931,-1.105359 -1.94355,-1.252637 -0.37221,-0.224446 -0.480484,-0.995185 -0.670244,-4.7625 -0.30052,-5.971974 -0.303712,-8.595858 -0.0093,-8.595858 z m 45.383792,0.529167 c 0.2355,0 0.47369,0.148828 0.52969,0.330729 0.056,0.181901 0.17088,3.396589 0.25528,7.14375 0.0844,3.747161 0.0646,6.810987 -0.0439,6.808887 -0.10853,-0.0022 -0.376,-0.116901 -0.59428,-0.254765 -0.33229,-0.209881 -0.41157,-1.371392 -0.48627,-7.139616 -0.0804,-6.207972 -0.0464,-6.888985 0.33951,-6.888985 z m 1.87741,0.703833 c 0.0717,-0.07485 0.1703,-0.02541 0.30179,0.04496 0.47631,0.254915 0.54751,0.650929 0.70383,3.910355 0.0956,1.994678 0.17415,5.215146 0.17415,7.156669 0,1.94152 -0.10434,3.530017 -0.23203,3.530017 -0.73234,0 -0.86035,-0.984129 -1.01544,-7.815543 -0.11938,-5.258255 -0.14752,-6.601919 0.0677,-6.826457 z m 1.90066,0.560173 2.06499,1.087788 c 2.48193,1.307613 3.74924,1.40711 5.61929,0.441317 0.68855,-0.3556 1.57955,-0.725949 1.97973,-0.822689 0.67461,-0.163076 0.7276,-0.116391 0.7276,0.640788 0,0.449175 -0.23252,2.278043 -0.51676,4.063835 -0.28425,1.785792 -0.65884,4.459608 -0.83251,5.941756 l -0.31575,2.694926 -2.27634,1.37821 c -1.25195,0.75801 -2.33584,1.406546 -2.40864,1.441256 -0.25678,0.1225 -1.36288,-0.40653 -2.52956,-1.209228 -0.94065,-0.647187 -1.17193,-0.95703 -1.13843,-1.524972 0.0232,-0.392028 -0.0516,-3.732131 -0.16589,-7.422803 z m 12.57752,0.135392 c 0.0831,0.01034 0.10685,0.152373 0.14935,0.435632 0.1103,0.734819 -1.21481,10.004948 -1.64021,11.474235 -0.17639,0.609203 -0.50391,1.142794 -0.72812,1.185974 -0.3619,0.06971 -0.37129,-0.167412 -0.078,-2.115116 0.18129,-1.206542 0.53108,-3.979602 0.77773,-6.162415 0.38417,-3.399919 0.52985,-4.039593 1.01544,-4.46381 0.27854,-0.24332 0.42076,-0.364835 0.50384,-0.3545 z m -60.358587,2.763655 c -0.22364,-0.223668 -0.30024,0.546986 -0.30024,3.027206 0,1.829924 0.07383,3.697227 0.164331,4.149617 0.09173,0.458621 0.283101,0.749168 0.432531,0.656808 0.37206,-0.229934 0.09914,-7.43787 -0.296622,-7.833631 z m 17.965307,1.397848 c -0.49321,-0.04786 -1.0005,0.0917 -1.37769,0.433048 -0.62295,0.56375 -0.65015,2.379554 -0.046,3.04736 0.67001,0.740354 2.05344,0.631673 2.71818,-0.213424 0.30162,-0.383426 0.54829,-0.962706 0.54829,-1.28726 0,-0.324551 -0.24667,-0.903834 -0.54829,-1.28726 -0.32186,-0.409182 -0.80128,-0.644607 -1.2945,-0.692464 z m 17.49093,2.610693 c -1.38592,-0.03437 -2.23464,0.03214 -2.39572,0.187586 -0.06,0.05792 0.0267,0.403493 0.19275,0.767911 0.26297,0.577155 0.47041,0.662492 1.61127,0.662492 2.34384,0 2.9145,-1.560379 0.5917,-1.617989 z M 5.4451841,68.006371 c 3.476255,-0.0037 4.9786899,0.107458 6.6145829,0.489892 4.870291,1.138566 8.733895,2.872897 16.055868,7.207312 10.661597,6.3114 16.079786,8.674389 23.234757,10.132715 4.238119,0.863801 7.342235,1.083138 15.336015,1.083138 h 7.684286 l -0.15968,5.754687 c -0.12901,4.654381 -0.08279,6.071862 0.241845,7.414015 0.37309,1.54259 0.367054,1.75797 -0.08837,3.05356 -0.54695,1.55615 -0.789479,5.55335 -0.431499,7.10965 0.20934,0.91004 0.1521,1.04992 -0.86403,2.11666 l -1.088305,1.14205 -0.83044,-1.01027 c -0.45672,-0.55572 -1.506778,-1.45991 -2.333708,-2.00918 l -1.503784,-0.99891 -0.581877,1.08314 c -0.32015,0.59566 -0.941811,1.49986 -1.381311,2.00918 l -0.798918,0.92604 0.181901,-0.92604 c 0.10007,-0.50932 0.581573,-1.83479 1.069703,-2.94556 1.29627,-2.94968 1.767231,-5.23522 1.612821,-7.82277 -0.22765,-3.81441 -1.444997,-5.371782 -4.199227,-5.371252 -2.06304,3e-4 -4.122568,1.079916 -6.888468,3.610632 -2.3667,2.16543 -3.519501,2.96228 -3.832841,2.64893 -0.09875,-0.0988 0.14915,-0.52275 0.55087,-0.94206 l 0.730705,-0.76222 -1.278991,-0.4191 c -4.75747,-1.557976 -8.017214,-1.569299 -13.854452,-0.0491 -0.541469,0.14103 -1.021672,-0.0922 -2.510958,-1.219567 -1.012799,-0.76671 -2.712228,-1.844462 -3.776514,-2.395202 -5.604536,-2.90022 -7.016876,0.48148 -3.394624,8.128189 0.672915,1.42058 1.223181,2.74598 1.223181,2.94555 0,0.19957 -0.698271,1.40431 -1.551843,2.67684 -2.305077,3.43647 -2.498501,3.90133 -2.561601,6.15001 -0.03064,1.09141 -0.18937,2.4005 -0.352433,2.90887 -0.402907,1.25595 -0.372824,2.55076 0.108003,4.62401 0.385392,1.66176 0.378073,1.83025 -0.159163,3.52226 -0.461351,1.45307 -0.558337,2.37556 -0.530717,5.06068 0.03098,3.01092 0.09165,3.38971 0.729671,4.56199 0.652172,1.19823 2.039537,2.34094 2.842204,2.34094 0.460507,0 1.740462,-1.87256 1.740462,-2.54609 0,-0.29319 -0.177107,-1.12975 -0.393774,-1.85932 -0.309536,-1.04231 -0.734669,-1.63853 -1.984375,-2.78329 -1.506114,-1.37965 -2.014154,-2.3363 -1.240751,-2.3363 0.192379,0 0.918755,0.19398 1.614371,0.43099 1.247113,0.42494 3.606182,0.3984 5.136638,-0.0563 0.538666,-0.16024 0.607006,-0.10358 0.529166,0.43977 -0.06297,0.43972 -0.519163,0.86337 -1.544608,1.43402 -1.364615,0.75939 -1.460264,0.8781 -1.535824,1.91047 -0.04432,0.6055 0.0437,1.55454 0.195337,2.10892 0.237173,0.86701 0.538288,1.16232 2.153357,2.10943 1.371309,0.80419 2.299419,1.14992 3.442684,1.28261 1.615281,0.18747 1.988602,0.51936 0.996838,0.88625 -0.981736,0.36316 -3.064104,-0.15105 -4.698938,-1.16013 -1.784668,-1.10155 -2.104811,-1.04858 -3.322794,0.54828 l -0.735356,0.96377 0.769979,1.09554 c 1.439704,2.04843 3.554527,2.98645 6.197555,2.74918 1.884522,-0.1692 2.896738,-0.7018 4.870503,-2.56366 2.094256,-1.97551 3.94798,-3.44786 4.341337,-3.44786 0.174333,0 0.504451,0.44649 0.733289,0.99219 0.63029,1.503 0.332367,5.984 -0.663525,9.98802 -1.712253,6.88398 -1.75426,7.2752 -1.68827,15.56391 0.06847,8.6061 0.205283,9.58117 2.219503,15.81764 l 1.144116,3.54345 -0.08165,7.80521 c -0.05136,4.91474 0.07157,10.40173 0.331762,14.81667 1.36697,23.19288 1.272431,26.30942 -0.870747,28.64114 -0.562928,0.61246 -0.883685,0.72761 -2.027267,0.72761 -1.931565,0 -3.632113,0.66345 -5.113383,1.99523 -3.297555,2.96479 -3.469687,7.46862 -0.33538,8.78292 1.177449,0.49373 3.992314,0.94707 5.583122,0.89917 0.654843,-0.0202 2.248326,-0.0324 3.540869,-0.0274 2.512774,0.009 4.828623,-0.50831 5.998083,-1.341 0.37788,-0.26908 1.021791,-0.97236 1.430921,-1.5627 1.00449,-1.44952 1.255852,-1.35158 0.646472,0.25219 -0.93716,2.46642 -0.446703,4.40115 1.412317,5.57278 0.68834,0.43387 1.162745,0.519 2.353345,0.4222 0.82031,-0.0667 2.169419,0.0364 2.997749,0.22892 1.27122,0.29554 1.698912,0.29175 2.741952,-0.0248 0.67967,-0.20626 2.128558,-0.37786 3.219958,-0.38086 2.47756,-0.007 4.233897,-0.75356 5.643067,-2.39985 1.28347,-1.49945 1.748102,-3.09366 2.075842,-7.12515 0.16373,-2.01379 0.579061,-4.49728 1.061951,-6.35 0.43617,-1.67349 1.249275,-4.85399 1.807125,-7.06778 0.55785,-2.21382 1.433337,-5.48804 1.945617,-7.27604 0.51229,-1.78803 1.765613,-6.22753 2.784843,-9.86555 1.0192,-3.63802 2.751731,-9.65068 3.850411,-13.36146 2.2928,-7.74396 2.388577,-8.65894 1.444357,-13.79244 -0.31909,-1.73482 -0.600693,-4.58874 -0.665593,-6.74067 -0.11933,-3.95579 0.108319,-8.30647 0.434599,-8.30647 0.33251,0 0.555555,2.24023 0.800985,8.04498 0.15775,3.73121 0.410681,6.41418 0.763261,8.0946 0.77216,3.68012 0.691406,4.84293 -0.652674,9.39271 -1.08474,3.67183 -1.88753,6.50837 -5.45083,19.26962 l -1.317232,4.71806 0.844393,1.49965 c 2.20599,3.91874 5.078566,7.41387 8.075476,9.82473 1.09001,0.87688 2.273543,1.66708 2.629813,1.75648 1.27325,0.31956 0.638592,0.63778 -0.873848,0.43821 -0.83674,-0.11041 -3.009636,-0.19513 -4.828646,-0.18913 -2.90973,0.0101 -3.4588,0.0853 -4.56923,0.62683 -1.80883,0.88201 -3.183015,2.56479 -3.889685,4.7625 -0.6644,2.06631 -0.574507,3.08691 0.349333,3.9548 0.64963,0.61029 2.906883,1.46558 4.552693,1.72548 1.45328,0.22947 6.820497,-0.21239 12.155847,-1.00098 7.314209,-1.08109 7.826179,-1.32076 6.600629,-3.08921 -0.70885,-1.02287 -0.75018,-1.24665 -0.8599,-4.69377 -0.0975,-3.06163 -0.0429,-3.78313 0.35399,-4.67827 0.2581,-0.58209 0.4549,-1.13517 0.4377,-1.22887 -0.33563,-1.81469 -2.08968,-14.77583 -2.57297,-19.01176 -0.7225,-6.3324 -0.80512,-9.14832 -0.33538,-11.42255 0.33933,-1.64293 0.29089,-1.88334 -1.13379,-5.64307 -0.546237,-1.44172 -0.605196,-2.07346 -0.641296,-6.87917 -0.03944,-5.24473 -0.04948,-5.33037 -1.123445,-9.66297 -1.38449,-5.58543 -3.309072,-15.8122 -4.032312,-21.42557 -0.33332,-2.58702 -0.92953,-5.65915 -1.46296,-7.54062 -0.49509,-1.74625 -1.198856,-4.453 -1.564246,-6.01514 -0.78317,-3.34819 -1.376043,-4.60661 -4.073653,-8.64495 -2.36815,-3.54514 -2.405932,-3.79651 -1.068152,-7.16804 0.80528,-2.02942 0.892868,-2.50723 0.889868,-4.89479 -0.0016,-1.45521 -0.106157,-3.31847 -0.232027,-4.14032 l -0.22841,-1.49396 1.232483,-0.5457 c 1.42727,-0.63135 1.767246,-1.25732 2.287716,-4.2168 0.18669,-1.06156 0.428315,-1.98519 0.537435,-2.05259 0.10911,-0.0674 0.387607,0.70804 0.618567,1.72341 0.33157,1.458 0.38356,2.64279 0.24753,5.63583 -0.21436,4.71825 3.55e-4,5.58224 1.542025,6.19911 0.98707,0.39493 1.048072,0.47976 0.894002,1.24488 -0.68232,3.38818 -1.075382,12.5651 -0.715202,16.69614 0.15224,1.74625 0.69121,5.02047 1.19786,7.27604 0.50662,2.25557 0.995855,4.87495 1.086755,5.82083 0.35642,3.71068 1.273383,9.36937 2.379183,14.67921 1.64454,7.89678 2.227409,10.53125 2.430339,10.98538 0.0976,0.21828 0.25053,3.37343 0.34003,7.01146 l 0.16278,6.61458 0.85576,1.90996 0.85576,1.90996 -0.16691,4.30775 c -0.14808,3.81365 -0.0721,5.12706 0.66249,11.4515 0.45638,3.92907 1.00932,8.33437 1.22887,9.78958 1.08511,7.19166 1.16107,8.10841 0.72657,8.77156 -0.33118,0.50538 -0.38448,1.23472 -0.28267,3.86333 0.10935,2.8235 0.21775,3.4359 0.84542,4.76456 0.90887,1.92392 0.72654,2.60629 -1.06091,3.96152 -0.95012,0.72032 -1.37493,1.25775 -1.56787,1.98437 -0.14552,0.54806 -0.592,1.31847 -0.99218,1.71204 -0.40019,0.39357 -0.72761,0.88761 -0.72761,1.09813 0,0.21051 -0.40042,0.61918 -0.88987,0.90795 -0.489338,0.28879 -1.412153,1.32203 -2.050513,2.29599 -1.21867,1.85941 -4.052357,4.19312 -7.096207,5.84409 -3.35452,1.81944 -5.57382,4.77166 -5.57382,7.41505 0,1.88085 0.533395,2.60152 2.710945,3.66282 2.21705,1.08055 4.31375,1.47081 7.91528,1.47381 5.899195,0.005 9.106315,-1.19032 16.096685,-5.99756 0.65485,-0.45035 2.8575,-1.37592 4.89479,-2.05672 3.83998,-1.2832 5.44644,-2.05646 6.35052,-3.0577 0.48843,-0.54096 0.52332,-0.90155 0.45682,-4.72374 -0.0681,-3.91536 -0.53073,-7.8618 -1.14308,-9.75238 -0.15174,-0.4685 -0.74393,-1.22263 -1.3162,-1.67586 -1.20923,-0.95774 -1.27346,-1.35067 -0.40618,-2.48771 0.72001,-0.94398 1.74667,-4.02695 1.74667,-5.24464 0,-0.44614 -0.18772,-1.01834 -0.41703,-1.27176 -0.38053,-0.42044 -0.35799,-0.83855 0.25735,-4.78317 1.23875,-7.94083 1.39545,-9.56883 1.64744,-17.15554 0.18315,-5.51437 0.0493,-7.35508 -0.87126,-12.00288 -0.22764,-1.14922 -0.35222,-2.68962 -0.27802,-3.43959 0.40005,-4.04656 1.76623,-15.60788 2.50527,-21.2018 0.29747,-2.25174 0.45589,-5.26701 0.45889,-8.73125 0.005,-6.03534 -0.0901,-6.54359 -2.2686,-12.07524 -1.50537,-3.82238 -1.64833,-5.20108 -0.29766,-2.87372 1.30379,2.2466 2.36285,5.40766 4.03335,12.03854 1.68532,6.68964 4.60961,19.72486 5.64823,25.17779 0.36475,1.91513 1.08446,4.7131 1.59939,6.21771 l 0.93638,2.73575 0.0956,6.61458 c 0.0524,3.63802 0.23427,7.44802 0.40411,8.46667 0.52345,3.13986 1.87317,14.57101 2.2934,19.42259 0.35687,4.10904 0.35677,4.65352 0,5.04775 -0.30444,0.33642 -0.39998,1.11841 -0.39998,3.27577 v 2.83394 l 1.05834,1.03766 c 1.29771,1.27198 1.35084,2.02008 0.25166,3.55069 -0.85458,1.18997 -0.74946,0.62936 -1.84692,9.81077 -0.13915,1.16417 -0.25476,3.00395 -0.25476,4.08864 -0.001,1.08471 -0.14098,3.22784 -0.31058,4.7625 -0.41323,3.73906 -0.22339,4.60498 1.33842,6.11538 1.38874,1.34302 3.16363,2.29935 5.17695,2.78846 1.0731,0.26076 -5.98553,0.3276 -36.10477,0.3421 h -10e-4 c -20.59115,0.01 -53.988227,0.0497 -74.215619,0.0884 -20.227395,0.0388 -37.4319262,0.0113 -38.2322912,-0.0615 l -1.4552083,-0.13229 0.037724,-37.04166 c 0.02067,-20.37291 0.050536,-66.47519 0.066146,-102.44956 l 0.028422,-65.407898 1.2888103,-0.382922 c 3.580818,-1.063387 5.73045452,-1.348089 10.2205647,-1.352889 z M 175.29528,70.530764 c -1.14301,0.01309 -2.38231,0.135446 -3.23236,0.361735 -2.45449,0.653396 -7.46983,3.260753 -7.46983,3.883484 0,0.423111 2.9859,0.247448 5.29167,-0.311609 3.17235,-0.769167 6.28876,-1.302234 7.61504,-1.302763 0.76334,-2.44e-4 1.1824,-0.13007 1.28519,-0.397908 0.2661,-0.69347 -0.13279,-1.617681 -0.83664,-1.938383 -0.46363,-0.211241 -1.51006,-0.307646 -2.65307,-0.294556 z m -95.68408,1.35909 c -1.39271,0.103616 -1.901245,0.7728 -1.136365,1.496033 0.61206,0.578723 5.534744,2.853924 7.272424,3.361035 1.46354,0.427106 1.384762,0.419613 1.788522,0.163298 0.46834,-0.297325 -1.038522,-2.520858 -2.285132,-3.371887 -1.27204,-0.868381 -4.285569,-1.749206 -5.639449,-1.648479 z m 79.91812,2.594157 c 0.1254,0 0.19168,0.267892 0.14728,0.595313 -0.0444,0.327422 -0.28157,2.440781 -0.5271,4.696354 -0.36301,3.33476 -0.58839,4.413621 -1.20561,5.773291 -0.41746,0.91966 -0.75913,1.782863 -0.75913,1.918229 0,0.135369 -0.11406,0.24598 -0.25373,0.24598 -0.13967,0 -0.49195,-0.769623 -0.78238,-1.709973 l -0.52814,-1.709457 1.83865,-4.574397 c 1.01111,-2.51577 1.8402,-4.72271 1.8402,-4.904611 0.001,-0.181901 0.1046,-0.330729 0.22996,-0.330729 z m 61.48255,1.631425 c 3.49831,0.01373 6.83877,0.381191 9.59476,1.100708 l 1.32292,0.345199 v 98.539717 98.54024 l -40.17584,0.13229 c -22.09668,0.0727 -40.22165,0.058 -40.27765,-0.0326 -0.056,-0.0906 0.28287,-0.22854 0.75293,-0.30644 2.67409,-0.44334 5.50399,-2.18314 6.17947,-3.79977 0.63738,-1.52551 0.47544,-5.74088 -0.32505,-8.46563 -1.44333,-4.913 -1.9506,-6.92204 -2.36161,-9.35602 -0.23344,-1.38245 -0.65447,-2.96383 -0.93586,-3.514 -0.36274,-0.70924 -0.5116,-1.54287 -0.5116,-2.86494 0,-1.80832 0.0304,-1.89479 1.00614,-2.86081 1.30242,-1.28948 1.87018,-3.37371 1.46193,-5.3666 -0.21445,-1.04688 -0.16959,-1.96379 0.20826,-4.27725 0.55848,-3.41937 1.91763,-13.12608 2.37608,-16.96744 0.17367,-1.4552 0.32004,-4.84849 0.32504,-7.54063 0.007,-4.09617 -0.10663,-5.58995 -0.69866,-9.155 -0.69257,-4.17063 -0.699,-4.30767 -0.28784,-6.52414 0.40458,-2.18104 0.39876,-2.37394 -0.16692,-5.2648 -0.93189,-4.76247 -0.93468,-7.22987 -0.0165,-17.55293 0.4527,-5.09323 0.93637,-10.9273 1.07538,-12.96459 0.45458,-6.66215 1.07137,-13.69309 1.50844,-17.19791 0.27331,-2.19177 0.45064,-5.91735 0.48834,-10.26966 l 0.0589,-6.83008 0.80667,-1.10742 0.80615,-1.10743 1.95286,0.0904 1.95285,0.0904 0.9927,-1.01647 c 1.13822,-1.16527 2.85723,-4.42526 3.35277,-6.35879 0.24857,-0.96984 0.83368,-1.91345 2.22364,-3.58479 3.32909,-4.00307 6.86072,-11.003578 10.10067,-20.022038 l 1.27486,-3.54862 4.2447,-2.055172 c 7.65758,-3.707895 16.13186,-6.87556 21.1491,-7.905461 3.38771,-0.695408 7.04368,-1.035371 10.54199,-1.021643 z m -38.18733,1.852084 c -0.3003,0.02141 -0.73008,0.117843 -1.37046,0.295589 -0.90623,0.251528 -3.17325,0.865474 -5.03845,1.364258 -3.34873,0.895515 -4.28197,1.307504 -3.99873,1.765783 0.23672,0.383059 4.37469,0.266978 6.07715,-0.170532 1.832,-0.470799 4.15286,-1.578043 4.79558,-2.288232 0.34743,-0.383908 0.37632,-0.56472 0.1297,-0.81132 -0.12329,-0.123301 -0.29449,-0.176956 -0.59479,-0.155546 z m -72.53046,1.83658 c -0.44074,-0.01699 -0.89774,0.156146 -1.36012,0.519865 -0.98483,0.774676 -0.98483,2.362085 0,3.136759 1.13387,0.891915 2.25627,0.685854 2.88458,-0.529166 0.55324,-1.069858 0.48046,-1.763334 -0.26252,-2.506307 -0.39684,-0.396834 -0.8212,-0.604164 -1.26194,-0.621151 z m 18.62832,1.90221 c -1.60639,-0.215464 -2.42931,0.06712 -2.42931,0.834057 0,0.455562 0.17027,0.666896 0.59532,0.738456 1.43439,0.241472 2.92368,0.06159 3.20652,-0.387056 0.39762,-0.630711 -0.0372,-1.006348 -1.37253,-1.185457 z m -48.385159,1.515153 c -0.08818,0.0438 -0.0059,0.160433 0.178801,0.383955 0.54708,0.662186 2.038348,1.570183 3.873148,2.35903 1.90429,0.818706 2.745569,0.87975 2.745569,0.198954 0,-0.58818 -4.263365,-2.656983 -5.953125,-2.888713 -0.49731,-0.0682 -0.756216,-0.09703 -0.844393,-0.05323 z m 72.799179,1.062467 c 0.20334,0.03922 0.42814,0.188259 0.51573,0.416512 0.21394,0.557508 1.33726,5.488615 2.15594,9.465055 0.35612,1.72989 0.6475,3.843235 0.6475,4.696355 0,0.85311 -0.0936,1.551328 -0.20825,1.551328 -0.11467,0 -0.42078,-0.982245 -0.68007,-2.182815 -1.01352,-4.69265 -2.81584,-13.46355 -2.81584,-13.703556 0,-0.211358 0.18164,-0.282101 0.38499,-0.242879 z m -71.162586,9.821623 c -0.07083,-0.07086 -0.798852,0.09898 -1.617472,0.377238 -1.59295,0.54146 -2.746603,1.415776 -2.746603,2.081526 0,0.22523 0.128177,0.409278 0.284737,0.409278 0.38954,0 4.240178,-2.707232 4.079338,-2.868042 z m 49.244536,1.623156 c -0.60791,0.2022 -0.74261,3.345791 -0.46405,10.846371 0.1556,4.18955 0.35398,7.73166 0.44028,7.87135 0.0863,0.1397 0.34407,0.25425 0.57309,0.25425 0.37012,0 0.39743,-0.5518 0.24598,-4.96094 -0.4595,-13.377556 -0.50077,-14.109031 -0.7953,-14.011031 z m 34.05787,4.471041 c -0.67626,0.0562 -0.27893,0.43476 1.16737,0.96739 2.83475,1.04393 3.47954,1.63362 3.89382,3.56257 0.12496,0.58196 0.28782,0.72656 0.74569,0.66146 0.44886,-0.0638 0.60575,-0.28855 0.67025,-0.96067 0.1737,-1.80963 -2.40448,-3.78678 -5.44205,-4.17338 -0.46489,-0.0592 -0.80965,-0.0761 -1.03508,-0.0574 z m -58.04503,0.74259 c -1.68057,0 -2.76658,2.27013 -1.66708,3.48506 0.69051,0.76301 2.30566,0.64739 2.98276,-0.21342 1.10651,-1.40668 0.35651,-3.27164 -1.31568,-3.27164 z m -25.917284,0.41032 c 2.55003,-0.0125 2.901392,0.0493 4.279842,0.74775 1.69918,0.86097 3.150032,2.22107 3.166732,2.96933 0.0062,0.27648 -0.201944,1.54461 -0.462504,2.81792 -0.26057,1.27331 -0.546287,2.3151 -0.634587,2.3151 -0.0883,0 -0.570796,-0.42369 -1.072286,-0.94154 -1.29728,-1.33959 -3.731614,-2.45156 -5.806364,-2.65204 -1.37592,-0.13296 -2.03527,-0.0549 -3.29799,0.39068 -0.868104,0.30632 -1.612245,0.55707 -1.653645,0.55707 -0.0414,0 -0.07545,-0.7775 -0.07545,-1.72806 0,-3.64145 1.00809,-4.45391 5.55625,-4.47621 z m 48.227544,1.84174 c -0.36147,-0.0758 -0.99011,-0.0407 -2.05775,0.0698 -1.76898,0.18299 -1.8559,0.22436 -1.9358,0.91932 l -0.0837,0.7276 h 1.94924 c 2.01787,0 2.58382,-0.24506 2.58382,-1.11931 0,-0.33439 -0.0943,-0.52155 -0.45579,-0.59738 z m 29.51551,1.19011 c 0.36796,0.047 0.81122,0.17497 1.39165,0.35088 4.59261,1.39185 9.33527,5.95918 8.85372,8.5261 -0.0901,0.48008 -0.57268,1.69051 -1.07228,2.68924 -0.49967,0.99869 -1.19216,2.08237 -1.53893,2.40812 l -0.63045,0.59221 -1.03249,-1.76526 c -0.56767,-0.97101 -1.66993,-2.40354 -2.44947,-3.18327 -1.67283,-1.67323 -4.839,-3.34905 -6.47867,-3.42925 -0.60497,-0.0296 -1.2485,-0.0652 -1.4304,-0.0796 -0.63301,-0.05 -0.32021,-0.81799 1.40869,-3.45664 1.44538,-2.20599 1.87478,-2.79359 2.97863,-2.65255 z m -97.675171,0.54881 c 0.04858,-0.0607 0.155729,-0.0427 0.238229,0.0398 0.27363,0.27364 -1.16823,2.76761 -2.00918,3.47524 -0.8645,0.72743 -1.315682,0.87676 -1.315682,0.43511 0,-0.14356 0.674593,-1.0663 1.499133,-2.05052 0.82458,-0.98423 1.5389,-1.83902 1.5875,-1.89962 z m 18.885669,3.94652 c 1.99139,0 2.198348,0.0528 2.878378,0.73278 0.66863,0.66863 0.748753,0.96346 0.917773,3.37343 0.10187,1.45243 0.368892,3.71224 0.593762,5.02192 0.2342,1.36311 0.342731,2.96281 0.253731,3.74137 -0.17455,1.52791 -2.275488,7.18432 -3.096968,8.338 -1.05574,1.48264 -2.823857,1.19247 -2.503207,-0.41083 0.08763,-0.43816 0.506777,-1.57609 0.931727,-2.52853 1.13898,-2.55294 1.731001,-6.62647 0.962731,-6.62647 -1.59906,0 -4.353163,6.87884 -4.802807,11.99617 -0.14205,1.61667 -0.31703,2.2298 -0.7922,2.77812 -0.4653,0.53694 -0.683584,0.63073 -0.922424,0.39584 -0.45609,-0.44853 -0.178183,-9.08899 0.391707,-12.17806 0.34121,-1.84957 0.377622,-2.56456 0.152962,-2.98432 -0.58738,-1.09753 -0.958297,-0.22157 -1.734777,4.09329 -0.23566,1.30968 -0.508248,4.40388 -0.605648,6.87607 -0.14555,3.69405 -0.247945,4.50694 -0.574125,4.56354 -0.21828,0.0379 -0.551927,-0.0312 -0.741557,-0.15347 -0.93988,-0.60629 -1.029271,-8.31541 -0.145211,-12.52637 0.45177,-2.15188 0.36859,-2.94993 -0.28112,-2.70061 -0.91347,0.35053 -1.814093,5.77487 -1.693953,10.20144 0.04609,1.69796 -0.0073,3.17844 -0.118856,3.29024 -0.67078,0.67216 -1.496671,-2.42201 -1.524971,-5.71438 -0.02046,-2.38002 0.91222,-6.88952 1.7663,-8.54108 0.61854,-1.19617 2.340179,-3.47693 4.087089,-5.41414 1.27619,-1.41521 1.886791,-2.51369 2.507341,-4.51135 0.20172,-0.64934 1.906253,-1.1126 4.094323,-1.1126 z m 74.573222,3.78685 c 0.21455,-0.0957 0.52783,-0.0619 1.1281,0.005 2.24403,0.26577 5.31585,2.21856 6.20996,3.94756 0.50715,0.98074 0.28413,1.60728 -1.62936,4.58164 -0.75539,1.17417 -1.58431,2.78152 -1.84175,3.57187 -0.5937,1.82274 -0.96251,2.23489 -2.45825,2.74454 -1.12906,0.3847 -4.21764,0.5156 -5.48235,0.23254 -2.8661,-0.64146 -6.64244,-2.60496 -7.27191,-3.78116 -0.25416,-0.47489 -0.15647,-0.75153 0.65939,-1.86294 1.49884,-2.04186 3.11854,-3.30175 5.45394,-4.24315 1.80824,-0.72891 2.29945,-1.06749 3.20342,-2.20969 0.58724,-0.74198 1.25863,-1.74951 1.49241,-2.23862 0.2059,-0.43074 0.32186,-0.65204 0.5364,-0.74776 z m 13.38317,0.11989 c -0.0924,0.076 -0.25217,0.34908 -0.52349,0.85576 -0.35065,0.65484 -0.64257,1.45851 -0.64957,1.78594 -0.007,0.32742 0.0534,0.59531 0.13333,0.59531 0.27117,0 1.16613,-2.24549 1.16013,-2.91041 -0.003,-0.28149 -0.028,-0.40259 -0.1204,-0.3266 z m -140.212117,4.36046 c 0.09816,-0.0751 0.252032,-0.0721 0.45837,0.015 0.275118,0.11615 0.643744,0.3818 1.099158,0.81132 0.829941,0.78273 0.924787,1.00049 0.778764,1.78593 -0.321945,1.73184 -0.723432,1.73506 -1.642277,0.0103 -0.783,-1.46906 -0.988492,-2.39728 -0.694015,-2.62258 z m 17.138489,0.49816 c 0.267779,0.008 0.444934,0.10174 0.444934,0.31109 0,0.65293 -1.723725,1.9998 -3.715535,2.90319 -1.09765,0.49784 -2.45358,1.30693 -3.013253,1.79834 -0.967105,0.84913 -1.007646,0.86124 -0.814421,0.23874 0.570151,-1.83663 2.125049,-4.22713 2.749703,-4.22713 0.128535,0 0.298615,0.24729 0.377755,0.54984 0.197723,0.75609 1.340973,0.60185 1.454691,-0.19638 0.09432,-0.66204 1.712788,-1.40235 2.516126,-1.37769 z m 60.728078,0.26303 c -0.33441,0.0138 -0.65948,0.23503 -0.99736,0.66456 -0.66188,0.84145 -0.69946,1.60807 -0.11058,2.25878 0.70022,0.77372 1.85615,0.62636 2.3337,-0.29714 0.53493,-1.03442 0.51104,-1.31981 -0.17156,-2.04639 -0.37582,-0.40002 -0.71979,-0.59363 -1.0542,-0.57981 z m -42.615489,0.23203 c 0.18029,0 0.664024,1.61506 0.991154,3.30936 0.25757,1.33398 0.291594,2.37948 0.122474,3.72639 -0.37717,3.00372 -1.146814,4.69105 -3.001884,6.58047 -1.51286,1.54086 -3.873149,3.10119 -3.873149,2.56057 0,-0.13095 0.535185,-0.67653 1.189075,-1.21233 1.56874,-1.28548 3.402648,-3.89392 4.010608,-5.70404 0.3874,-1.15349 0.488859,-2.26436 0.488859,-5.35781 0,-2.14643 0.03286,-3.90261 0.07286,-3.90261 z m 67.030019,2.74299 c -0.37633,-0.0744 -1.0072,-0.051 -2.0252,0.0444 -1.69161,0.15851 -1.97456,0.25647 -1.97456,0.68316 0,0.38603 0.19346,0.49809 0.8599,0.49609 1.85142,-0.005 3.63802,-0.33927 3.63802,-0.68057 0,-0.2965 -0.12183,-0.46877 -0.49816,-0.54312 z m -12.90206,10.22159 c 0.4831,0 0.58336,0.31761 0.96222,3.04271 0.16187,1.16416 0.47633,3.14277 0.69866,4.39663 0.22233,1.25385 0.36305,2.62307 0.31265,3.04271 l -0.0915,0.76275 -0.5979,-1.12758 c -0.57033,-1.07584 -1.05089,-3.73088 -1.5074,-8.33128 -0.1484,-1.49565 -0.11183,-1.78594 0.22324,-1.78594 z m -69.376123,2.03761 c 1.750254,0.0147 3.50809,0.11691 3.814237,0.29455 0.41159,0.23884 0.09508,0.29999 -1.60352,0.30799 -1.164167,0.006 -2.711979,0.0613 -3.439583,0.12351 -1.620203,0.1385 -3.089949,-0.14815 -2.538346,-0.49506 0.274704,-0.17276 2.016957,-0.2457 3.767212,-0.23099 z m -1.494483,2.0283 c 0.09343,-0.0359 0.242481,-0.0164 0.464054,0.0527 0.327423,0.10218 0.65954,0.28502 0.73794,0.40617 0.07842,0.12115 0.971391,0.47588 1.984375,0.78807 1.960616,0.60424 3.690739,1.39731 3.944979,1.80867 0.33536,0.54261 -0.359453,0.47185 -2.688208,-0.27388 -1.336914,-0.42812 -3.587989,-0.92373 -5.002796,-1.10123 -1.574509,-0.19753 -2.61474,-0.45076 -2.68149,-0.65319 -0.07922,-0.24033 0.330761,-0.33073 1.500167,-0.33073 1.285081,0 1.609721,-0.0839 1.609721,-0.41496 0,-0.15436 0.03783,-0.24571 0.131258,-0.28163 z m 62.677316,7.12049 c 0.0695,-0.0694 1.35469,0.25492 2.85615,0.72089 4.65037,1.44317 8.68319,3.67118 8.68319,4.79712 0,0.29123 -0.7181,0.29958 -0.89658,0.0114 -0.0739,-0.11952 -2.01609,-1.09079 -4.3155,-2.15852 -4.50118,-2.09007 -6.52813,-3.16998 -6.32726,-3.37086 z m 76.95189,17.78341 c -1.36991,0.0276 -2.8206,0.23829 -3.79615,0.62115 -3.28134,1.2878 -6.02037,4.04711 -7.79023,7.84759 -2.30669,4.95329 -2.2547,12.1339 0.13436,18.61333 1.67383,4.5397 4.31939,8.99903 9.12813,15.38562 6.10236,8.10461 7.46198,14.97198 4.20388,21.23488 -2.71975,5.22803 -7.85576,7.86322 -15.33395,7.86722 -3.76229,0.002 -6.64388,-0.62116 -10.8257,-2.34301 -1.43605,-0.59132 -2.65498,-1.0311 -2.70888,-0.9772 -0.0539,0.0539 -0.42312,2.02142 -0.8201,4.37235 -0.71787,4.25122 -0.71886,4.27909 -0.21446,5.11803 0.27892,0.46392 0.53821,0.87881 0.57671,0.92191 0.21908,0.24567 7.61906,1.93539 9.33742,2.13217 9.1889,1.05222 17.62698,-1.20143 23.03476,-6.15208 6.27366,-5.74333 9.12404,-14.68363 7.22695,-22.66735 -1.29892,-5.46637 -3.79727,-10.27498 -8.37571,-16.1215 -4.05397,-5.17681 -6.18191,-8.76504 -7.53184,-12.7 -1.20367,-3.50864 -1.12071,-7.59408 0.21187,-10.44174 1.0578,-2.26046 2.34442,-3.60238 4.98368,-5.19658 2.51449,-1.51881 3.57859,-2.8066 3.57859,-4.33049 0,-1.17128 -0.58895,-2.10385 -1.70894,-2.70577 -0.6515,-0.35014 -1.94049,-0.50609 -3.31039,-0.47853 z M 55.372369,177.63689 c 0.23838,0.16559 0.900343,1.26625 1.896008,3.23856 0.76332,1.51207 3.180746,5.48762 5.371766,8.8346 2.19101,3.34698 4.292242,6.68073 4.669482,7.40834 l 0.685746,1.32291 0.0124,-0.96583 c 0.0068,-0.53125 -0.225725,-2.35884 -0.516765,-4.06125 -0.87948,-5.14445 -0.62877,-6.66009 0.49351,-2.98431 1.18965,3.89644 1.229012,5.50023 0.311092,12.6416 -0.45826,3.56526 -1.009311,8.32776 -1.224731,10.58333 -0.53194,5.56996 -1.237942,9.97454 -2.622062,16.36438 -1.52228,7.02771 -2.706745,9.60801 -4.948535,10.77919 -0.70435,0.36796 -1.26969,0.48263 -1.26969,0.25786 0,-0.0633 0.117276,-0.42409 0.260966,-0.80202 0.1437,-0.37791 0.638101,-2.14165 1.098641,-3.91965 0.72702,-2.80668 0.847639,-3.75588 0.913639,-7.20163 0.08591,-4.48403 0.326304,-5.98291 2.845304,-17.72708 2.12327,-9.89893 2.389219,-11.50346 2.162659,-13.04985 -0.26387,-1.80094 -0.874677,-3.03486 -3.937227,-7.95042 -2.87242,-4.61044 -4.380947,-7.43369 -5.555217,-10.39782 -0.699985,-1.76688 -0.885369,-2.53651 -0.646989,-2.37091 z m 70.460301,7.92303 -0.1788,1.14928 c -0.0983,0.63191 -0.18711,1.74408 -0.19741,2.47169 -0.0103,0.7276 -0.27907,2.72547 -0.59686,4.43952 l -0.57774,3.11609 0.76843,3.76308 c 0.68509,3.35534 0.76691,4.27818 0.75551,8.52506 -0.0126,4.71278 -0.71345,13.24352 -1.59319,19.39106 -0.39492,2.75225 -0.39484,3.02393 0,3.46025 0.23569,0.26043 0.42788,0.88089 0.42788,1.37873 -7.6e-4,1.37076 -1.19343,6.01292 -1.68413,6.55516 -0.23765,0.2626 -0.43202,0.59112 -0.43202,0.73019 0,0.38811 1.37512,1.1134 2.94814,1.55494 h 10e-4 c 1.07805,0.30157 2.46311,0.37447 5.78311,0.30127 2.40109,-0.053 4.57398,-0.18434 4.82864,-0.29197 0.38952,-0.16462 0.46302,-0.55424 0.46302,-2.4536 0,-1.79467 0.119,-2.49618 0.58033,-3.41994 0.56772,-1.13671 0.57335,-1.24443 0.24908,-4.92373 -0.38603,-4.3802 -1.00759,-9.95963 -1.36219,-12.2282 -0.71718,-4.58811 -1.09624,-8.15216 -1.33429,-12.55014 -0.23352,-4.31419 -0.3565,-5.15401 -1.06608,-7.27604 -1.05693,-3.16082 -4.26366,-8.92048 -7.13187,-12.81007 z m -13.78882,48.30144 c 0.71154,0.0916 2.6463,0.1664 4.29947,0.1664 1.82748,0 3.00602,0.10372 3.00602,0.26458 0,0.26197 -6.02467,0.32213 -7.40833,0.0739 -1.333,-0.23913 -1.2436,-0.67826 0.10284,-0.50488 z m -27.088274,2.81223 c 0.13446,0 -0.01288,0.43647 -0.327628,0.96997 -0.31477,0.53348 -0.71936,1.51575 -0.89917,2.18281 -0.29958,1.11115 -0.498234,0.91085 -0.371554,-0.37465 0.06663,-0.67607 1.275952,-2.77813 1.598352,-2.77813 z m 64.725764,0.99839 c 3.4442,0.12718 3.77168,0.17585 3.43648,0.51108 -0.28189,0.28187 -3.30886,0.33613 -4.70927,0.0853 -2.65634,-0.47693 -2.13321,-0.72216 1.27279,-0.59635 z m -60.552375,0.88264 c 0.02775,0.017 -0.02075,0.17868 -0.120923,0.50022 -0.11334,0.36381 -0.208873,1.04841 -0.211873,1.52136 -0.0064,0.89855 -0.310388,1.14438 -0.572058,0.4625 -0.20299,-0.52896 0.0478,-1.46406 0.567924,-2.11615 0.20517,-0.25724 0.309179,-0.38493 0.33693,-0.36793 z m -46.965609,2.4846 -0.481624,0.92604 c -0.26506,0.50932 -0.681354,1.64042 -0.925008,2.51354 -0.43606,1.56258 -0.446151,1.57399 -0.634587,0.72399 -0.217038,-0.97915 0.523827,-2.81084 1.482597,-3.66541 z m 66.831064,1.02836 c 0.2381,0.0654 1.11172,0.19622 1.94097,0.29042 0.91755,0.10424 1.78337,0.38817 2.21226,0.72554 0.61747,0.48564 0.68858,0.69602 0.57568,1.69757 -0.0767,0.68053 -0.008,1.24104 0.16898,1.38545 0.47167,0.38433 5.22261,0.64638 6.03478,0.33279 0.53927,-0.20823 0.73005,-0.48389 0.79375,-1.14722 0.26643,-2.77273 1.22448,1.41992 1.25728,5.50199 0.014,1.73963 -0.0722,2.22245 -0.45837,2.57194 -0.6671,0.60373 -4.1155,2.14935 -5.9955,2.68717 -2.05417,0.58766 -3.78458,1.46975 -6.24148,3.18224 -3.42693,2.3886 -5.48691,3.22173 -9.430945,3.81475 -4.33192,0.65132 -9.801655,-0.0748 -10.945585,-1.45314 -0.44423,-0.53525 1.017743,-1.89347 4.215763,-3.91655 3.23839,-2.04862 4.00699,-2.23651 6.07043,-1.48415 1.888197,0.68845 2.562727,1.33535 3.173967,3.04374 0.503,1.40592 1.17018,2.0229 1.65881,1.53427 0.45823,-0.45821 -0.43987,-2.87004 -1.50998,-4.05453 -1.0039,-1.11119 -1.07099,-1.37278 -0.47853,-1.86448 0.34353,-0.28512 0.54678,-0.2654 1.19115,0.11523 1.23399,0.72893 1.83563,-0.0675 0.77566,-1.02681 -0.63299,-0.57287 -0.67052,-1.00852 -0.12609,-1.46037 0.3283,-0.27244 0.5934,-0.24844 1.43195,0.1297 1.6792,0.75722 2.25311,-0.0244 0.6935,-0.94464 -0.95298,-0.56227 -1.01391,-1.09709 -0.19947,-1.75442 0.32946,-0.26591 0.66159,-0.17747 1.81539,0.48266 1.30331,0.74568 1.4118,0.76767 1.4118,0.28939 0,-0.28499 -0.28084,-0.70206 -0.62425,-0.92707 -0.34337,-0.225 -0.83326,-0.61829 -1.08882,-0.87385 -0.34097,-0.34097 -0.9534,-0.47825 -2.2996,-0.51625 -2.02983,-0.0573 -2.30644,-0.1748 -1.81333,-0.76895 0.60859,-0.73334 4.12117,-0.33634 6.1619,0.69609 0.88963,0.45011 1.01459,0.45951 1.15755,0.0868 0.0946,-0.24662 -0.0429,-0.56766 -0.3359,-0.78393 -0.69984,-0.51649 -3.66484,-1.46038 -4.58731,-1.46038 -1.04952,0 -1.22703,-0.41279 -0.40825,-0.94929 0.84879,-0.55615 2.42997,-0.37822 4.66742,0.52555 1.57733,0.6371 1.58178,0.63619 1.50068,0.0817 -0.11041,-0.75655 -1.46601,-1.49544 -3.09852,-1.68879 -0.83097,-0.0984 -1.34823,-0.28871 -1.34823,-0.49609 0,-0.513 1.58985,-1.73877 2.08049,-1.60404 z m -61.908367,0.57258 c -0.0095,0.11714 -0.146218,0.39308 -0.419096,0.93792 -0.248074,0.4953 -0.45642,1.34666 -0.46302,1.89188 -0.01172,0.96697 -0.138538,1.17559 -0.497128,0.817 -0.556128,-0.55613 0.232756,-3.32341 1.035079,-3.6313 0.236152,-0.0906 0.353631,-0.13265 0.344165,-0.0155 z m 14.727267,2.02571 c 0.05771,0.0577 -0.186296,0.81344 -0.542086,1.67897 -0.35581,0.86556 -0.651324,1.81167 -0.657324,2.10271 -0.0057,0.29104 -0.135652,0.70776 -0.288872,0.92604 -0.20511,0.29224 -0.251716,0.0132 -0.176216,-1.05833 0.07072,-1.00431 0.328247,-1.81116 0.830957,-2.60449 0.40063,-0.6322 0.775841,-1.1026 0.833541,-1.0449 z m 5.425508,1.00356 c 0.14631,0 0.06258,0.38695 -0.185518,0.85989 -0.2481,0.47294 -0.586085,1.44955 -0.751375,2.17041 -0.18224,0.79475 -0.379502,1.18302 -0.501262,0.98599 -0.3997,-0.64675 0.806855,-4.01629 1.438155,-4.01629 z m 79.633382,0.49661 c 2.36001,0.006 4.7563,1.18084 4.7563,2.72438 0,0.76362 0.63183,1.06568 0.8723,0.41703 0.0916,-0.24694 0.23673,-0.22199 0.57257,0.0966 0.29575,0.2811 0.56884,1.27794 0.79789,2.91042 0.41262,2.94074 1.12882,6.00795 2.23965,9.59321 0.44513,1.43671 0.80926,2.83148 0.80926,3.09956 0,0.77959 -1.4749,2.24437 -2.85978,2.84013 -0.70181,0.30192 -2.04227,0.67336 -2.97863,0.82528 -0.93633,0.15192 -1.88081,0.25859 -2.09909,0.23719 -0.21828,-0.0213 -1.52798,-0.11841 -2.91042,-0.21601 -2.96453,-0.20926 -4.5143,-0.80675 -5.75469,-2.2195 -0.80203,-0.9135 -0.85969,-1.10809 -0.85369,-2.88871 0.003,-1.04997 0.12104,-3.33768 0.26148,-5.08393 0.14044,-1.74625 0.33448,-4.39584 0.43098,-5.88801 0.1143,-1.76636 0.3001,-2.81642 0.53227,-3.00912 0.2838,-0.23559 0.35657,-0.1527 0.35657,0.40618 0,0.89111 0.737,1.21838 1.22886,0.5457 0.19724,-0.26974 0.35967,-0.795 0.35967,-1.16737 0.001,-1.02481 0.95878,-2.38264 1.98076,-2.80965 0.68849,-0.28767 1.47107,-0.41534 2.25774,-0.41341 z m -1.35702,3.19515 c -0.76033,0.0319 -1.33927,0.1442 -1.51981,0.36174 -0.30149,0.36328 -0.23159,0.44812 0.53382,0.64544 1.63123,0.42051 0.97468,1.91564 -0.84129,1.91564 -0.5063,0 -1.17097,0.85423 -0.88625,1.13895 0.0826,0.0826 0.46072,0.0322 0.84026,-0.11214 1.03018,-0.39166 1.9542,-0.0794 1.85208,0.6258 -0.0615,0.4249 -0.38498,0.66221 -1.23662,0.90796 -2.22988,0.64349 -2.4493,1.48083 -0.32194,1.22886 1.11649,-0.13223 1.32708,-0.08 1.57923,0.39119 0.42264,0.78975 0.11536,1.30043 -0.8971,1.49035 -0.48884,0.0917 -1.16496,0.4067 -1.50275,0.6997 l -0.61444,0.53227 1.62058,-0.1664 1.62005,-0.1664 0.12299,0.83819 c 0.12039,0.82021 0.0784,0.85853 -2.01693,1.82883 -2.09439,0.96989 -3.05714,1.70794 -2.69699,2.06809 0.0991,0.0991 0.56252,0.0207 1.02991,-0.17415 5.35257,-2.23142 7.68827,-2.15417 11.41998,0.37776 1.15435,0.7832 2.19497,1.36461 2.31252,1.29191 0.79889,-0.49371 -0.9718,-2.39767 -3.3476,-3.59978 -1.08939,-0.55123 -2.14422,-0.84976 -3.41168,-0.9648 -1.93407,-0.17556 -2.53818,-0.58565 -2.1916,-1.4888 0.15237,-0.39709 0.39171,-0.44417 1.56786,-0.30592 0.76351,0.0897 1.95854,0.35743 2.65514,0.59479 1.32868,0.45276 1.66737,0.39003 1.41697,-0.26251 -0.3225,-0.8404 -1.5707,-1.33415 -3.72846,-1.47485 -2.11317,-0.1378 -2.14049,-0.14856 -2.22519,-0.8878 l -0.0858,-0.74827 2.07016,0.1111 c 1.13855,0.0612 2.33805,0.20349 2.66547,0.31626 0.69876,0.24061 0.81021,-0.25512 0.23461,-1.04231 -0.28935,-0.39574 -0.81121,-0.51659 -2.64583,-0.61289 l -2.28513,-0.11988 v -0.78807 -0.78858 l 2.68614,0.0941 c 1.83147,0.0639 2.71919,-0.001 2.78949,-0.20464 0.16566,-0.47889 -0.69188,-0.72229 -3.09438,-0.8785 -2.04829,-0.1332 -2.25599,-0.19726 -2.33009,-0.71727 -0.10102,-0.70909 0.85151,-0.97544 2.59467,-0.72605 1.81909,0.26019 1.97438,0.25816 2.11667,-0.0222 0.34234,-0.67548 -3.56776,-1.30243 -5.84874,-1.20665 z m -43.02167,0.0884 c 0.26649,-0.047 0.55672,-0.0421 0.88625,0.0114 1.14335,0.18556 1.2131,0.24147 0.99839,0.80098 -0.12592,0.32809 -0.51316,0.4346 -1.57819,0.4346 -1.64174,0 -2.00033,-0.32461 -1.04852,-0.94826 0.23325,-0.15287 0.47559,-0.25166 0.74207,-0.29869 z m -1.38337,2.30528 c 1.36801,0 1.80915,0.31917 1.29604,0.93742 -0.3561,0.42908 -2.2776,0.52037 -2.883544,0.13694 -0.7276,-0.46043 0.179634,-1.07436 1.587504,-1.07436 z m -2.867529,2.19315 c 0.292443,-0.0339 0.680991,-0.0253 1.149284,0.045 0.922685,0.13836 1.172025,0.28444 1.172025,0.68833 0,0.56986 -0.36592,0.60712 -1.918233,0.19482 -1.292775,-0.34336 -1.280405,-0.82645 -0.403076,-0.92811 z m 23.625429,0.98185 c 0.07,0 0.12713,0.4069 0.12713,0.90434 0,1.1742 -0.63644,1.56326 -5.25188,3.20963 -2.81044,1.00251 -4.17526,1.67878 -6.67763,3.30935 -3.57439,2.3291 -6.08336,3.45879 -9.02735,4.06384 -2.90121,0.59628 -8.325251,0.54429 -10.335291,-0.0971 -2.61054,-0.83436 -3.217161,-1.45789 -2.579171,-2.64997 0.25151,-0.46999 0.311988,-0.47027 1.894458,0.0233 2.64483,0.82307 6.482397,1.15562 9.310027,0.80616 4.746387,-0.58661 7.322747,-1.56627 10.889257,-4.14135 1.48132,-1.06953 3.02351,-1.87364 5.15938,-2.68924 1.67561,-0.63984 3.79285,-1.51745 4.70513,-1.95079 0.91226,-0.43331 1.71594,-0.78807 1.78594,-0.78807 z m 17.74621,13.0204 c 0.13779,-0.0506 0.39485,0.11205 0.87178,0.45165 2.22586,1.58491 7.98358,2.3314 11.53934,1.49603 1.01865,-0.23928 2.41566,-0.72814 3.10421,-1.08675 0.68855,-0.35862 1.31366,-0.65216 1.38906,-0.65216 0.0755,0 0.13694,0.33066 0.13694,0.73484 0,1.51387 -1.37947,2.5582 -4.41988,3.34605 -3.39511,0.87977 -7.53468,0.4303 -10.66137,-1.15704 -1.72757,-0.87704 -2.11666,-1.3001 -2.11666,-2.30321 0,-0.51467 0.0188,-0.77883 0.15658,-0.82941 z m -26.78235,10.25777 c 59.19887,-0.0282 118.42507,0.0177 118.81135,0.16588 0.37492,0.14385 0.41858,1.7417 0.41858,15.33033 0,8.34329 -0.09,15.22523 -0.19999,15.29313 -0.34872,0.21553 -237.7836142,0.50422 -237.9911532,0.28938 -0.109137,-0.113 -0.1984375,-7.02739 -0.1984375,-15.36547 0,-14.71758 0.014763,-15.16829 0.5115967,-15.4342 0.277548,-0.14855 59.44921,-0.25081 118.648054,-0.27905 z m 135.52248,0.20102 c 0.0429,0.27502 0.0687,0.55238 0.11214,0.82734 v -0.8263 c -0.0376,-0.002 -0.0746,0.002 -0.11214,-10e-4 z m -205.634995,5.9738 c -1.828142,-0.0361 -3.349391,0.67059 -4.405416,2.07584 -2.011442,2.6766 -0.745099,5.68196 3.286621,7.80056 3.28512,1.7263 4.627387,3.73223 3.743441,5.595 -1.243357,2.6202 -4.901586,1.74045 -6.586162,-1.58388 -0.528796,-1.04354 -0.778211,-1.28835 -1.243851,-1.22215 -0.689425,0.0981 -0.851112,0.93539 -0.587561,3.04478 0.217673,1.7422 0.872779,2.65327 1.619539,2.25361 0.390842,-0.20915 0.880094,-0.15429 1.966288,0.22066 2.679198,0.92482 5.100815,0.44228 6.708635,-1.33739 2.834905,-3.13793 1.4296,-7.18514 -3.354834,-9.66246 -3.486415,-1.80522 -4.429497,-3.31525 -2.977596,-4.76715 1.385702,-1.38571 3.549832,-0.62704 5.066874,1.77612 1.201552,1.90336 2.057611,1.15913 1.760616,-1.53014 -0.186055,-1.6849 -0.250684,-1.82724 -0.86248,-1.89394 -0.363802,-0.0397 -1.358281,-0.25762 -2.209684,-0.48421 -0.671777,-0.1788 -1.31505,-0.27322 -1.92443,-0.28525 z m 97.721685,0.007 c -1.06062,-0.0455 -2.16711,0.0462 -3.098,0.28474 -3.03462,0.77743 -5.27083,2.62122 -6.58978,5.43326 -0.58155,1.23989 -0.68833,1.83611 -0.68833,3.84834 0,2.01653 0.106,2.60751 0.69298,3.8592 1.06545,2.27195 3.08731,4.0127 5.52473,4.75681 1.7812,0.54378 7.12975,0.0616 9.32656,-0.84077 0.7162,-0.29424 0.7276,-0.33509 0.7276,-2.63757 0,-1.54787 0.11184,-2.43173 0.33073,-2.61379 0.1819,-0.15131 0.61829,-0.49494 0.96997,-0.76326 0.41743,-0.31845 0.58101,-0.63957 0.47129,-0.92553 -0.14345,-0.3738 -0.6302,-0.43821 -3.31866,-0.43821 -2.43591,0 -3.22339,0.0871 -3.47059,0.38499 -0.4213,0.50762 -0.17065,0.86383 0.93431,1.3255 0.89074,0.37216 0.90795,0.4091 0.90795,1.96112 0,2.2302 -0.82962,2.94297 -3.42666,2.94297 -1.00047,0 -1.55191,-0.18555 -2.5554,-0.85989 -3.13182,-2.10455 -4.05417,-6.0889 -2.31149,-9.98803 1.13019,-2.52881 3.0162,-3.95193 5.25084,-3.96203 1.3417,-0.006 2.40094,0.64112 3.83905,2.34663 0.62632,0.74281 1.30158,1.35082 1.50068,1.35082 0.54594,0 0.87798,-1.16085 0.87798,-3.06855 0,-1.8983 -0.2471,-2.18592 -1.51257,-1.76164 -0.51007,0.17104 -0.98997,0.14037 -1.56166,-0.0966 -0.74637,-0.31047 -1.76092,-0.49295 -2.82153,-0.53847 z m -80.623504,0.37156 c -3.41341,-0.0263 -6.875771,0.0299 -7.385596,0.19172 -1.002981,0.31832 -1.770739,4.28124 -0.885734,4.57181 0.179943,0.0591 0.824464,-0.43887 1.431954,-1.10639 1.19192,-1.30969 2.417126,-1.83771 3.929476,-1.69396 l 0.926042,0.0879 0.0708,6.71432 c 0.07282,6.90925 0.0027,7.44089 -0.978751,7.44089 -0.2454,0 -0.672823,0.16591 -0.949813,0.36845 -0.42788,0.31287 -0.450418,0.43222 -0.150378,0.79375 0.50282,0.60581 6.932524,0.631 7.432104,0.0284 0.40442,-0.48729 -0.06447,-1.19063 -0.79375,-1.19063 -0.95837,0 -1.043461,-0.56498 -1.117761,-7.42745 l -0.07286,-6.72776 1.033012,-0.0848 c 1.60578,-0.13142 2.307418,0.16141 3.499528,1.45986 0.61291,0.66757 1.23276,1.12196 1.39423,1.02216 0.16592,-0.10255 0.290938,-0.96405 0.290938,-2.00659 0,-1.61089 -0.06896,-1.86416 -0.58136,-2.13837 -0.314215,-0.16817 -3.678663,-0.27704 -7.092073,-0.30334 z m 15.635221,0.01 c -2.90494,0.0388 -4.737127,0.17029 -4.960937,0.35605 -0.59585,0.49448 -0.397593,1.02842 0.444417,1.19683 0.43961,0.0879 0.875316,0.28294 0.968416,0.43357 0.21789,0.35256 0.384461,12.56648 0.181901,13.33872 -0.09599,0.36594 -0.494381,0.69635 -1.066601,0.88521 -0.71408,0.23567 -0.895491,0.42571 -0.831991,0.87127 0.07758,0.5444 0.230123,0.57339 3.415813,0.64389 2.50262,0.0554 3.406764,-0.0128 3.623034,-0.27337 0.37457,-0.45132 0.122312,-0.81439 -0.946712,-1.36219 l -0.868164,-0.44494 0.07441,-3.09748 0.07441,-3.098 0.696082,-0.0806 c 1.015394,-0.11769 1.846531,0.77166 3.414261,3.65249 1.59017,2.92201 2.367637,3.84412 3.827157,4.54029 1.45079,0.69199 3.589623,0.5464 4.496883,-0.30592 0.82359,-0.77372 0.53206,-1.20099 -0.95498,-1.40043 -1.38906,-0.18632 -2.028783,-0.80996 -3.840593,-3.74448 -0.81391,-1.31824 -1.721904,-2.66081 -2.017964,-2.98379 l -0.538469,-0.58757 0.648539,-0.24649 c 2.76476,-1.05116 3.675733,-4.35057 1.793173,-6.4947 -1.43589,-1.63539 -2.421829,-1.86794 -7.632093,-1.79834 z m 35.238163,0.0568 c -1.83574,0 -2.46838,0.095 -2.73007,0.41031 -0.29049,0.35005 -0.14904,0.57862 0.96015,1.55443 l 1.30018,1.14411 0.0465,4.86172 c 0.0607,6.3786 -0.0774,7.19874 -1.39888,8.31629 -1.12379,0.95033 -1.0528,1.31706 0.29403,1.51774 0.43656,0.0652 1.03188,0.0757 1.32292,0.0238 0.29104,-0.0519 1.26047,-0.0947 2.15439,-0.0977 2.08905,-0.005 2.39261,-0.50897 0.88057,-1.46348 l -1.05058,-0.66352 v -5.58519 c 0,-5.04828 0.0401,-5.55196 0.41599,-5.23999 0.39092,0.32444 7.77854,8.96019 9.99319,11.68146 1.07712,1.32345 1.89432,1.76953 2.36988,1.29397 0.19603,-0.19603 0.29486,-2.67467 0.30386,-7.63312 0.008,-4.03852 0.1051,-7.5213 0.21652,-7.73958 0.11142,-0.21828 0.56675,-0.60478 1.01183,-0.85886 0.51483,-0.2939 0.77687,-0.6308 0.72037,-0.92605 -0.0767,-0.40071 -0.46245,-0.47461 -2.82515,-0.54001 -2.62075,-0.0725 -3.47524,0.11802 -3.47524,0.77411 0,0.13007 0.4112,0.43249 0.91415,0.67231 0.50292,0.23984 0.99551,0.62499 1.09451,0.85576 0.099,0.23075 0.23057,2.50321 0.29197,5.04982 0.10837,4.49167 0.0973,4.61327 -0.3669,4.0659 -0.26318,-0.31033 -2.02644,-2.39392 -3.91811,-4.63021 -1.89166,-2.23628 -4.04637,-4.69097 -4.78834,-5.45496 l -1.34875,-1.38906 z m 47.70251,0 c -5.33728,0 -7.30951,0.0853 -7.64449,0.33073 -0.26379,0.19322 -0.57974,1.02157 -0.76016,1.99264 -0.2707,1.45693 -0.2551,1.71584 0.12712,2.09806 0.40499,0.40499 0.51332,0.34832 1.52135,-0.79685 1.17528,-1.3352 2.413,-1.87509 3.95997,-1.72806 l 0.92604,0.0879 0.0744,6.35 c 0.041,3.4925 0.0125,6.60453 -0.0636,6.91586 -0.0761,0.31134 -0.4077,0.63374 -0.73639,0.71624 -0.3287,0.0825 -0.83119,0.32081 -1.11672,0.52968 -0.44148,0.32289 -0.46583,0.44355 -0.16589,0.80512 0.50927,0.61374 6.66957,0.62816 7.17683,0.0176 0.38118,-0.45932 0.17167,-0.77669 -0.84698,-1.28313 -0.563,-0.2799 -0.63118,-0.52874 -0.77308,-2.81378 -0.0856,-1.37861 -0.14499,-4.47084 -0.13229,-6.87193 l 0.0233,-4.36563 1.1095,-0.0806 c 1.33353,-0.0969 2.36068,0.38923 3.60184,1.7048 0.64249,0.68101 1.05159,0.91731 1.37356,0.79375 0.38555,-0.14793 0.44129,-0.44486 0.35089,-1.86448 -0.17063,-2.67954 0.27671,-2.53783 -8.0052,-2.53783 z m 27.21074,0 c -2.6989,0 -3.02829,0.0517 -3.27525,0.51315 -0.28659,0.53552 -0.21388,0.63194 0.91726,1.21439 0.47557,0.24487 0.52916,0.53962 0.52916,2.91042 v 2.63808 h -4.49791 -4.49792 l -0.0754,-2.70061 -0.0749,-2.70061 0.81907,-0.42375 c 0.51755,-0.26765 0.78779,-0.58845 0.73329,-0.87126 -0.0753,-0.39083 -0.48897,-0.44752 -3.25768,-0.44752 -3.03586,0 -3.1749,0.024 -3.252,0.56431 -0.0607,0.42532 0.11865,0.63366 0.72761,0.84594 l 0.80822,0.28164 v 7.02024 7.02024 l -0.65061,0.1633 c -0.81875,0.2055 -1.30669,0.77804 -1.10691,1.29863 0.23366,0.60888 6.30211,0.58561 6.80992,-0.0269 0.30473,-0.36719 0.26296,-0.49736 -0.29817,-0.92604 -0.35909,-0.27429 -0.80202,-0.62229 -0.98392,-0.7736 -0.22935,-0.19077 -0.33073,-1.20512 -0.33073,-3.30781 v -3.03186 h 4.63848 4.63847 l -0.0744,3.2334 c -0.071,3.08875 -0.10206,3.24775 -0.69195,3.54139 -1.01886,0.50715 -1.22817,0.82437 -0.84698,1.28364 0.26847,0.32349 0.95598,0.40824 3.3166,0.40824 2.36063,0 3.04811,-0.0847 3.31659,-0.40824 0.38111,-0.45921 0.17216,-0.77608 -0.84698,-1.28416 l -0.61753,-0.30799 v -7.00371 c 0,-6.99237 0.001,-7.00346 0.57619,-7.08536 0.85261,-0.12142 1.29259,-0.74243 0.87902,-1.24075 -0.25735,-0.31007 -0.98577,-0.39687 -3.33055,-0.39687 z m -88.72223,0.002 c -2.78268,-0.0268 -5.588187,0.0184 -5.953642,0.15864 -0.68604,0.26326 -0.482626,1.11528 0.371554,1.55701 0.43447,0.22465 0.843605,0.67414 0.909505,0.99891 0.10498,0.517 0.06657,7.26769 -0.06615,11.6334 -0.04463,1.4687 -0.07594,1.53038 -0.972033,1.90479 -0.99306,0.41492 -1.293911,1.36235 -0.482141,1.51877 0.24419,0.0471 3.044969,0.0742 6.223909,0.0599 5.593018,-0.0249 5.800368,-0.0447 6.406848,-0.61443 0.73226,-0.68794 1.59447,-2.77459 1.37873,-3.33675 -0.24384,-0.63545 -1.07261,-0.44422 -1.90221,0.43874 -1.16234,1.23717 -2.61433,1.80581 -4.626597,1.81281 -1.00274,0.003 -1.866791,-0.12791 -2.050521,-0.31161 -0.37859,-0.37856 -0.449928,-6.4486 -0.07855,-6.67815 0.49361,-0.30507 3.473078,0.29032 3.818888,0.76326 0.18848,0.25779 0.5728,0.42484 0.85421,0.37104 0.44665,-0.0854 0.52174,-0.36568 0.59014,-2.20607 0.0649,-1.74564 -1e-5,-2.16545 -0.37569,-2.44016 -0.39047,-0.28552 -0.59103,-0.18298 -1.44073,0.73743 -0.92599,1.00294 -1.067443,1.06465 -2.270663,0.98805 l -1.283125,-0.0817 v -2.77813 -2.77812 h 2.17041 c 2.158138,0 2.176598,0.006 3.204448,1.00976 0.95785,0.93583 1.06586,0.97846 1.46761,0.57671 0.64081,-0.64084 0.58793,-2.67565 -0.078,-3.03238 -0.27354,-0.1464 -3.033496,-0.24503 -5.816176,-0.27181 z m -20.750671,1.36167 c 0.23669,-0.0309 0.568598,-0.0108 1.03973,0.0537 2.18654,0.29969 3.01997,1.21092 3.01997,3.30316 0,1.22045 -0.59617,2.10304 -1.74563,2.58331 -0.94564,0.39513 -2.645689,0.49726 -2.838069,0.17053 -0.23031,-0.39116 -0.18163,-5.49808 0.05581,-5.86063 0.09026,-0.13785 0.231498,-0.21923 0.468189,-0.25011 z M -22.46629,314.7634 v 5.2e-4 0.75551 h 0.03772 c -0.02107,-0.2502 -0.02401,-0.50109 -0.02945,-0.75189 -0.0028,-10e-4 -0.0055,-0.002 -0.0083,-0.004 z" />
  </g>
</svg>
